<?xml version="1.0" encoding="utf-8"?>
<!-- Generator: Adobe Illustrator 26.1.0, SVG Export Plug-In . SVG Version: 6.00 Build 0)  -->
<svg version="1.1" id="logo" xmlns="http://www.w3.org/2000/svg" xmlns:xlink="http://www.w3.org/1999/xlink" x="0px" y="0px"
	 viewBox="0 0 1920 1080" style="enable-background:new 0 0 1920 1080;" xml:space="preserve">
<style type="text/css">
	.st0{fill:#E83835;}
	.st1{fill:#112632;}
	.st2{fill:#FFEEEE;}
	.st3{display:none;fill:#112631;}
	.st4{fill:none;stroke:#112631;stroke-width:40;stroke-miterlimit:10;}
</style>
<path id="bg" class="st0" d="M1347.7,531c0,1.6,0,3.2,0,4.9c0,0.2,0,0.5,0,0.7c0,1.5,0,3-0.1,4.5v0.2c0,1.6-0.1,3.2-0.2,4.7
	c0,0.1,0,0.2,0,0.3c0,1.5-0.1,3.1-0.2,4.6c0,0.2,0,0.3,0,0.5c0,1-0.1,2-0.2,3c0,0.8-0.1,1.6-0.2,2.5c-0.1,1.8-0.2,3.7-0.4,5.5
	c-0.1,1.2-0.2,2.5-0.3,3.7c-0.1,1.6-0.3,3.3-0.5,4.9c-0.2,1.6-0.3,3.3-0.5,4.9c-0.2,1.6-0.4,3.2-0.6,4.8c0,0.1,0,0.1,0,0.2
	c-0.2,1.2-0.3,2.5-0.5,3.7c-0.5,3.4-1,6.7-1.5,10c-0.2,1.3-0.5,2.7-0.7,4c0,0,0,0.1,0,0.1c0,0,0,0,0,0c-0.2,0.9-0.3,1.9-0.5,2.8
	c-0.4,2-0.7,4-1.2,6c-0.2,0.8-0.3,1.7-0.5,2.5c-0.1,0.4-0.2,0.9-0.3,1.3c-0.2,0.9-0.4,1.8-0.6,2.6c-0.2,0.8-0.3,1.6-0.5,2.4
	c-0.1,0.4-0.2,0.7-0.2,1.1c-0.2,0.7-0.3,1.4-0.5,2.1c-1,4.3-2.1,8.6-3.2,12.9c-0.2,0.7-0.4,1.5-0.6,2.2c-0.6,2.4-1.3,4.7-2,7
	c-0.3,1-0.6,2-0.9,3c-0.3,1-0.6,2.1-1,3.1c-0.4,1.2-0.8,2.5-1.2,3.7c-0.3,1.1-0.7,2.2-1.1,3.3c-0.2,0.7-0.5,1.5-0.8,2.2
	c-0.4,1.2-0.8,2.4-1.2,3.5c-0.5,1.3-0.9,2.6-1.4,3.9c-0.2,0.6-0.4,1.2-0.6,1.8c-0.1,0.4-0.3,0.7-0.4,1.1c-0.9,2.5-1.9,5-2.9,7.5
	c-0.2,0.6-0.5,1.2-0.8,1.9c0,0,0,0,0,0.1c-0.2,0.6-0.5,1.1-0.7,1.7c-0.6,1.5-1.2,2.9-1.8,4.4c-0.2,0.4-0.3,0.7-0.5,1.1
	c-0.2,0.4-0.3,0.7-0.5,1.1c-0.3,0.7-0.6,1.5-1,2.2c-0.4,0.9-0.8,1.8-1.2,2.6c-0.2,0.6-0.5,1.1-0.8,1.7c-0.6,1.4-1.3,2.9-2,4.3
	c-0.7,1.4-1.3,2.9-2,4.3c-0.3,0.7-0.7,1.4-1,2.1c0,0,0,0,0,0c-0.3,0.7-0.7,1.4-1,2.1c-0.5,1.1-1.1,2.2-1.6,3.2
	c0,0.1-0.1,0.2-0.1,0.2c-0.3,0.6-0.6,1.2-0.9,1.8c-0.4,0.9-0.9,1.7-1.3,2.5c-0.3,0.6-0.6,1.1-0.9,1.7c-0.6,1-1.1,2.1-1.7,3.1
	c-0.6,1-1.1,2.1-1.7,3.1c0,0,0,0.1-0.1,0.1c-0.9,1.5-1.7,3.1-2.6,4.6c-0.7,1.3-1.5,2.6-2.2,3.8c-0.6,1-1.2,2.1-1.8,3.1
	c-0.7,1.1-1.3,2.2-2,3.3c-0.7,1.1-1.3,2.2-2,3.3c-1.4,2.2-2.8,4.3-4.2,6.5c-0.5,0.8-1,1.6-1.6,2.4c-0.2,0.4-0.5,0.8-0.8,1.1
	c-0.6,0.9-1.2,1.8-1.9,2.8c-0.6,0.9-1.2,1.7-1.8,2.6c-0.7,1-1.4,2-2.1,3c-0.9,1.3-1.9,2.7-2.8,4c-0.5,0.7-1,1.3-1.5,2
	c0,0-0.1,0.1-0.1,0.1c-0.4,0.5-0.8,1.1-1.2,1.6c-0.6,0.8-1.2,1.6-1.8,2.4c-0.5,0.6-0.9,1.2-1.4,1.8c-0.1,0.1-0.1,0.2-0.2,0.2
	c-0.5,0.7-1,1.4-1.6,2c-0.1,0.2-0.3,0.4-0.4,0.6c-2.7,3.5-5.5,6.9-8.4,10.3c-0.7,0.8-1.3,1.6-2,2.4c-1.3,1.6-2.7,3.2-4.1,4.7
	c-0.7,0.8-1.4,1.6-2.1,2.3c-0.9,1-1.8,2-2.6,2.9c-0.2,0.2-0.3,0.3-0.4,0.5c-0.8,0.9-1.7,1.8-2.5,2.7c-1.9,2-3.8,4-5.7,6
	c-1,1-1.9,2-2.9,2.9c-1,1-1.9,1.9-2.9,2.9c-0.7,0.7-1.4,1.4-2.2,2.1c-0.1,0.1-0.2,0.1-0.2,0.2c-0.5,0.5-1.1,1-1.6,1.5
	c-0.9,0.8-1.7,1.6-2.6,2.5c-0.2,0.2-0.3,0.3-0.5,0.5c-1.1,1-2.2,2.1-3.4,3.1c-0.1,0.1-0.3,0.3-0.5,0.4c-0.1,0.1-0.2,0.2-0.4,0.3
	c-0.5,0.5-1.1,1-1.7,1.5c-0.7,0.6-1.4,1.2-2,1.8c-2,1.8-4,3.5-6,5.2c-0.1,0.1-0.2,0.1-0.3,0.2c-1,0.9-2.1,1.7-3.1,2.6
	c-2.1,1.8-4.2,3.5-6.4,5.2c-1,0.8-2,1.6-3,2.4c-1,0.8-2.1,1.6-3.1,2.4c-2.2,1.6-4.3,3.3-6.6,4.9c-0.9,0.7-1.9,1.4-2.8,2
	c-1,0.7-2,1.5-3,2.2c-2.2,1.5-4.3,3-6.5,4.5c-1.2,0.8-2.4,1.6-3.6,2.4c-0.8,0.5-1.5,1-2.3,1.5c-1,0.6-2,1.3-3,1.9
	c-1.1,0.7-2.1,1.3-3.2,2c-0.8,0.5-1.6,1-2.5,1.5c-1.1,0.7-2.2,1.3-3.3,2c-1,0.6-2,1.2-3,1.8c-0.8,0.5-1.5,0.9-2.3,1.3
	c-1.1,0.6-2.1,1.2-3.2,1.8c-0.5,0.3-1,0.6-1.5,0.8c0,0,0,0-0.1,0c-0.7,0.4-1.5,0.8-2.2,1.2c-0.2,0.1-0.3,0.2-0.5,0.2
	c-0.8,0.5-1.7,0.9-2.5,1.4c-3.2,1.7-6.4,3.4-9.7,5c-1,0.5-2,1-3.1,1.5c-1.9,0.9-3.7,1.8-5.6,2.7c-0.8,0.4-1.7,0.8-2.5,1.2
	c-0.9,0.4-1.9,0.9-2.8,1.3c-0.3,0.1-0.6,0.3-1,0.5c-1.3,0.6-2.5,1.1-3.8,1.7c-2.5,1.1-4.9,2.1-7.4,3.2c-0.8,0.3-1.5,0.6-2.3,1
	c-1.3,0.5-2.6,1-3.8,1.5c-2.2,0.9-4.5,1.7-6.7,2.6c-0.9,0.4-1.9,0.7-2.8,1c-1,0.4-2.1,0.8-3.1,1.1c-0.1,0-0.2,0.1-0.3,0.1
	c-1.3,0.5-2.7,1-4.1,1.4c-0.9,0.3-1.8,0.6-2.7,0.9c-0.9,0.3-1.8,0.6-2.8,0.9c-1.1,0.4-2.3,0.7-3.4,1.1c-0.4,0.1-0.8,0.3-1.3,0.4
	c-1.2,0.4-2.4,0.7-3.5,1.1c-0.7,0.2-1.3,0.4-2,0.6c-1,0.3-1.9,0.6-2.9,0.8c-0.2,0.1-0.5,0.1-0.8,0.2c-1.2,0.3-2.4,0.7-3.6,1
	c-2.9,0.8-5.8,1.6-8.8,2.3c-0.9,0.2-1.9,0.5-2.8,0.7c-2.2,0.5-4.3,1-6.5,1.5c-0.8,0.2-1.6,0.4-2.4,0.5c-1.2,0.3-2.4,0.5-3.6,0.8
	c-3.7,0.8-7.3,1.5-11,2.1c-0.9,0.2-1.8,0.3-2.7,0.5c-0.6,0.1-1.2,0.2-1.9,0.3c-1.4,0.2-2.9,0.5-4.3,0.7c-1.4,0.2-2.9,0.4-4.3,0.6
	c-0.2,0-0.4,0.1-0.6,0.1c-1.4,0.2-2.7,0.4-4,0.5c-0.2,0-0.5,0.1-0.7,0.1c-1.2,0.2-2.5,0.3-3.7,0.5c-0.5,0.1-1,0.1-1.5,0.2
	c-1.4,0.2-2.9,0.3-4.3,0.5c-1.5,0.2-3,0.3-4.4,0.4c-0.2,0-0.5,0-0.7,0.1c-1.6,0.1-3.2,0.3-4.8,0.4c-1.4,0.1-2.7,0.2-4.1,0.3
	c-0.7,0-1.5,0.1-2.2,0.1c-1.2,0.1-2.4,0.1-3.7,0.2c-1.5,0.1-3.1,0.2-4.6,0.2c-0.3,0-0.6,0-0.9,0c-1.5,0.1-3,0.1-4.5,0.1H967
	c-1.3,0-2.6,0.1-3.9,0.1c-0.6,0-1.3,0-2,0c-1.4,0-2.8,0-4.1,0c-1.8,0-3.6,0-5.4,0c-1.7,0-3.5,0-5.2-0.1c-1.7,0-3.4-0.1-5-0.2
	c-0.9,0-1.8-0.1-2.7-0.1c-0.8,0-1.6-0.1-2.4-0.1c-1,0-1.9-0.1-2.8-0.2c-0.8,0-1.5-0.1-2.3-0.1c-1.1-0.1-2.2-0.1-3.3-0.2
	c-0.5,0-1.1-0.1-1.6-0.1c-1.1-0.1-2.1-0.2-3.2-0.3c-0.7-0.1-1.4-0.1-2.2-0.2c-1-0.1-2-0.2-3-0.3c-0.5,0-1.1-0.1-1.6-0.2
	c-1.2-0.1-2.5-0.2-3.7-0.4c-0.5-0.1-1-0.1-1.5-0.2c-1.1-0.1-2.2-0.2-3.3-0.4c-0.5-0.1-1.1-0.1-1.6-0.2c-1.2-0.1-2.3-0.3-3.4-0.5
	c-1.5-0.2-2.9-0.4-4.3-0.6c-1.5-0.2-3-0.5-4.6-0.7c-0.2,0-0.3-0.1-0.5-0.1c-1.7-0.3-3.4-0.6-5.1-0.9c-3.4-0.6-6.7-1.2-10-1.9
	c-0.1,0-0.1,0-0.2,0c-1.7-0.4-3.4-0.7-5.1-1.1c-1.6-0.4-3.3-0.7-4.9-1.1c-0.4-0.1-0.7-0.2-1.1-0.3c-1.2-0.3-2.4-0.6-3.5-0.9
	c-0.7-0.2-1.3-0.3-2-0.5c-1.1-0.3-2.1-0.5-3.2-0.8c-0.3-0.1-0.7-0.2-1-0.3c-0.2,0-0.3-0.1-0.5-0.1c-1.2-0.3-2.4-0.6-3.6-1
	c-0.2-0.1-0.5-0.1-0.7-0.2c-1.3-0.4-2.6-0.7-3.9-1.1c-0.4-0.1-0.8-0.2-1.2-0.4c-1.5-0.4-2.9-0.8-4.3-1.3c-1.6-0.5-3.2-1-4.9-1.5
	c0,0-0.1,0-0.1,0c-1.6-0.5-3.2-1-4.8-1.6c-1.5-0.5-2.9-1-4.3-1.5c-0.3-0.1-0.6-0.2-0.8-0.3c-1.5-0.5-3-1.1-4.5-1.6
	c-1.6-0.6-3.2-1.2-4.8-1.8c-1.6-0.6-3.2-1.2-4.8-1.8c-0.1,0-0.2-0.1-0.3-0.1c-3.1-1.2-6.1-2.5-9.2-3.8c-1.6-0.7-3.1-1.3-4.7-2
	c-1.6-0.7-3.1-1.4-4.6-2.1c-1.6-0.7-3.1-1.4-4.7-2.1c-0.3-0.2-0.7-0.3-1-0.5c-1.1-0.5-2.3-1.1-3.4-1.6c-0.6-0.3-1.2-0.6-1.9-0.9
	c-0.9-0.4-1.8-0.9-2.6-1.3c-0.4-0.2-0.8-0.4-1.2-0.6c-0.3-0.2-0.6-0.3-1-0.5c-0.3-0.1-0.5-0.3-0.8-0.4c-1.1-0.6-2.3-1.2-3.4-1.8
	c-1.5-0.8-3-1.6-4.5-2.4c-0.8-0.4-1.6-0.9-2.4-1.4c-0.9-0.5-1.7-0.9-2.5-1.4c-0.5-0.2-0.9-0.5-1.3-0.8c-1.2-0.7-2.5-1.4-3.7-2.1
	c-0.3-0.2-0.7-0.4-1-0.6c-1.4-0.8-2.9-1.7-4.3-2.5c-0.1,0-0.1-0.1-0.2-0.1c0,0,0,0-0.1,0c-1.6-1-3.2-2-4.8-3c-0.1,0-0.2-0.1-0.2-0.1
	c-1.5-1-3.1-1.9-4.6-2.9c-1.3-0.8-2.5-1.6-3.8-2.5c-1-0.6-2-1.3-3-2c-1.2-0.8-2.4-1.6-3.5-2.4c-0.4-0.3-0.8-0.5-1.2-0.8
	c-0.8-0.5-1.5-1.1-2.3-1.6c-0.6-0.4-1.2-0.9-1.8-1.3c-1-0.7-2-1.4-2.9-2.1c-1.3-0.9-2.5-1.8-3.8-2.8c-0.9-0.7-1.8-1.4-2.8-2.1
	c-0.6-0.5-1.3-1-1.9-1.4c-0.9-0.7-1.7-1.3-2.6-2c-2.2-1.7-4.4-3.5-6.6-5.3c-0.8-0.7-1.7-1.4-2.5-2.1c-1.7-1.4-3.3-2.8-4.9-4.2
	c-0.6-0.5-1.2-1-1.8-1.5c-1.8-1.6-3.7-3.2-5.5-4.9c-1.3-1.2-2.6-2.4-3.9-3.6c-0.2-0.2-0.4-0.4-0.6-0.6c-0.2-0.2-0.4-0.3-0.6-0.5
	c-1-0.9-2-1.9-2.9-2.8c-0.1-0.1-0.1-0.1-0.2-0.2c-0.1-0.1-0.3-0.3-0.4-0.4c-1.3-1.2-2.6-2.5-3.8-3.7c-1.4-1.3-2.7-2.7-4-4
	c-1.3-1.4-2.7-2.7-4-4.1c0,0-0.1-0.1-0.1-0.1c-1.3-1.3-2.5-2.7-3.8-4c0,0,0-0.1-0.1-0.1c-1.2-1.2-2.3-2.5-3.4-3.7
	c-0.2-0.2-0.4-0.5-0.6-0.7c-0.1-0.1-0.2-0.2-0.3-0.3c-1.1-1.2-2.1-2.4-3.2-3.6c0,0,0,0-0.1-0.1c-1.2-1.4-2.5-2.9-3.7-4.3
	c-1.2-1.4-2.3-2.8-3.5-4.2c-0.1-0.1-0.1-0.1-0.2-0.2c-1.2-1.5-2.4-2.9-3.6-4.4c0,0,0,0,0-0.1c-1.1-1.4-2.2-2.8-3.3-4.1
	c-0.2-0.2-0.3-0.4-0.5-0.6c-1.1-1.4-2.1-2.7-3.1-4.1c0,0-0.1-0.1-0.1-0.1c-1.1-1.5-2.3-3-3.4-4.5c-1-1.4-2-2.7-3-4.1
	c-0.1-0.2-0.3-0.4-0.4-0.6c-1.1-1.5-2.2-3.1-3.2-4.6c-0.7-1.1-1.5-2.1-2.2-3.2c-1.2-1.8-2.4-3.6-3.6-5.4c-0.5-0.8-1.1-1.7-1.6-2.5
	c-0.8-1.2-1.6-2.5-2.4-3.8c-0.8-1.2-1.5-2.4-2.2-3.7c-0.7-1.2-1.4-2.4-2.1-3.5c-0.8-1.3-1.6-2.6-2.3-4c-0.9-1.6-1.8-3.1-2.7-4.7
	c-0.8-1.4-1.5-2.7-2.3-4.1c-0.3-0.6-0.6-1.2-1-1.8c-0.7-1.2-1.3-2.4-1.9-3.7c-0.7-1.4-1.4-2.8-2.1-4.2c-0.3-0.5-0.5-1.1-0.8-1.6
	c-0.4-0.8-0.8-1.6-1.2-2.4c-0.4-0.8-0.8-1.5-1.1-2.3c-0.4-0.8-0.7-1.5-1.1-2.3c-0.4-0.8-0.8-1.7-1.2-2.5c-0.1-0.2-0.2-0.5-0.3-0.7
	c-0.6-1.2-1.1-2.5-1.7-3.7c-0.7-1.4-1.3-2.9-1.9-4.3c-0.6-1.3-1.1-2.5-1.6-3.8c-0.1-0.2-0.2-0.5-0.3-0.7c-0.4-0.9-0.7-1.7-1.1-2.6
	c-0.4-1-0.8-2-1.3-3.1c-0.1-0.2-0.2-0.5-0.3-0.8c-0.6-1.6-1.3-3.2-1.9-4.8c-0.5-1.4-1-2.7-1.5-4.1c-0.2-0.6-0.4-1.2-0.6-1.7
	c-0.3-0.8-0.6-1.6-0.9-2.4c-0.3-0.9-0.7-1.8-1-2.7c0-0.1-0.1-0.3-0.1-0.4c-0.5-1.4-1-2.8-1.5-4.2c-0.7-2.1-1.4-4.3-2.1-6.4
	c-0.4-1.2-0.8-2.4-1.1-3.5c-0.4-1.4-0.9-2.9-1.3-4.3c-0.4-1.3-0.8-2.7-1.1-4c0-0.1,0-0.1-0.1-0.2c-0.4-1.5-0.8-3-1.2-4.4
	c-0.4-1.5-0.8-3.1-1.2-4.7c-0.4-1.4-0.7-2.9-1.1-4.3c-0.9-3.6-1.7-7.2-2.5-10.9c-0.3-1.2-0.5-2.5-0.8-3.7c-0.3-1.5-0.6-3-0.9-4.5
	c0-0.1,0-0.2,0-0.2c-0.3-1.6-0.6-3.2-0.9-4.8c0-0.2-0.1-0.3-0.1-0.5c-0.2-1.3-0.4-2.5-0.7-3.8c-0.3-1.9-0.6-3.7-0.9-5.6
	c-0.2-1.5-0.4-3-0.7-4.5c0,0,0-0.1,0-0.1c-0.2-1.5-0.4-3-0.6-4.5c0-0.3-0.1-0.7-0.1-1c-0.2-1.4-0.4-2.8-0.5-4.2
	c-0.2-1.4-0.3-2.8-0.5-4.2c0-0.3-0.1-0.6-0.1-0.9c-0.3-3.2-0.6-6.3-0.9-9.5c-0.1-1.3-0.2-2.5-0.3-3.8c0-0.7-0.1-1.3-0.1-2
	c-0.1-1.4-0.2-2.8-0.2-4.2c0-0.1,0-0.1,0-0.2c-0.1-1.4-0.1-2.8-0.2-4.2v0c0-0.7-0.1-1.5-0.1-2.2c0-0.9-0.1-1.8-0.1-2.7
	c0-0.6,0-1.1,0-1.7c0-0.9,0-1.8,0-2.7c0-0.7,0-1.4,0-2.1c0-1.4,0-2.9,0-4.3c0-2,0-4,0-6c0-1.4,0-2.7,0.1-4c0-1.6,0.1-3.1,0.1-4.7
	c0.1-1.8,0.1-3.6,0.2-5.4c0.1-1.5,0.2-3.1,0.3-4.6c0-0.3,0-0.7,0.1-1c0.1-1.3,0.2-2.6,0.3-3.9c0-0.3,0-0.7,0.1-1
	c0.1-1.2,0.2-2.3,0.3-3.5c0-0.4,0.1-0.7,0.1-1.1c0.1-1.6,0.3-3.1,0.4-4.7v0c0.2-1.6,0.3-3.2,0.5-4.8c0,0,0-0.1,0-0.1
	c0.2-1.4,0.3-2.7,0.5-4.1c0.1-0.5,0.1-1,0.2-1.5c0.2-1.4,0.3-2.7,0.5-4c0,0,0,0,0,0c0.2-1.5,0.4-3,0.7-4.5c0-0.2,0.1-0.4,0.1-0.7
	c0.2-1.5,0.5-2.9,0.7-4.4c0-0.2,0.1-0.4,0.1-0.6c0.2-1.3,0.4-2.6,0.7-3.9c0.1-0.3,0.1-0.7,0.2-1c0.2-1.1,0.4-2.2,0.6-3.4
	c0.4-1.9,0.7-3.8,1.1-5.7c0.3-1.5,0.6-3,1-4.5c0.3-1.2,0.5-2.3,0.8-3.5c0.3-1.2,0.5-2.3,0.8-3.4c0.3-1.3,0.6-2.5,0.9-3.8
	c0.3-1.2,0.6-2.5,1-3.8c0.3-1.2,0.6-2.5,1-3.7c0.3-1.1,0.6-2.2,0.9-3.3c0.1-0.2,0.1-0.4,0.2-0.6c0.3-1.2,0.7-2.3,1-3.5
	c0.3-1.2,0.7-2.5,1.1-3.7c0.4-1.2,0.7-2.5,1.1-3.7c0.8-2.4,1.5-4.9,2.4-7.3c0.4-1.1,0.7-2.1,1.1-3.2c0.4-1.1,0.7-2.1,1.1-3.2
	c0.5-1.4,1-2.7,1.5-4.1c0.1-0.3,0.2-0.6,0.3-0.9c0.3-0.9,0.7-1.8,1-2.6c0.2-0.6,0.5-1.2,0.7-1.8c0.4-1,0.8-2.1,1.2-3.1
	c0.4-0.9,0.7-1.8,1.1-2.7c0.5-1.2,0.9-2.3,1.4-3.5c0.5-1.2,1-2.4,1.5-3.6c0.5-1.2,1-2.4,1.5-3.6c0.1-0.3,0.3-0.7,0.5-1
	c0.4-1,0.8-1.9,1.2-2.8c0.3-0.8,0.7-1.5,1-2.3c0.6-1.3,1.2-2.6,1.8-3.8c0.5-1,0.9-2,1.4-3c0.6-1.3,1.3-2.6,1.9-3.9
	c0.6-1.3,1.2-2.5,1.9-3.8c0.1-0.1,0.1-0.3,0.2-0.4c0.8-1.5,1.5-3,2.3-4.5c0.6-1.2,1.3-2.5,2-3.7c1-1.8,1.9-3.6,2.9-5.3
	c0.8-1.5,1.7-3,2.5-4.5c0.9-1.5,1.7-3,2.6-4.4c0.9-1.5,1.8-2.9,2.7-4.4c0.9-1.5,1.8-2.9,2.7-4.4c0.8-1.2,1.5-2.4,2.3-3.6
	c0.4-0.6,0.7-1.2,1.1-1.7c0.6-0.9,1.1-1.7,1.7-2.6c0.2-0.3,0.5-0.7,0.7-1c0.9-1.3,1.8-2.6,2.6-3.9c0.8-1.2,1.7-2.5,2.6-3.7
	c0.2-0.2,0.3-0.5,0.5-0.7c0.2-0.2,0.3-0.5,0.5-0.7c0,0,0,0,0,0c0,0,0-0.1,0.1-0.1c1-1.4,2-2.8,3-4.1c1.1-1.5,2.2-3,3.4-4.5
	c0,0,0.1-0.1,0.1-0.1c0-0.1,0.1-0.1,0.2-0.2c0,0,0-0.1,0-0.1c0.9-1.2,1.8-2.3,2.7-3.5c0.1-0.1,0.2-0.2,0.3-0.4
	c0.2-0.2,0.3-0.4,0.5-0.6c1.1-1.4,2.2-2.8,3.3-4.1c0,0,0,0,0-0.1c1-1.3,2.1-2.6,3.1-3.8c0.2-0.3,0.4-0.5,0.7-0.8
	c1.2-1.4,2.3-2.8,3.5-4.2c1.2-1.5,2.5-2.9,3.7-4.3c0,0,0,0,0.1-0.1c1.1-1.2,2.1-2.4,3.2-3.6c0.1-0.1,0.2-0.2,0.3-0.3
	c0.2-0.2,0.4-0.5,0.6-0.7c1.1-1.3,2.3-2.5,3.4-3.7c0,0,0.1-0.1,0.1-0.1c1.2-1.4,2.5-2.7,3.8-4c0,0,0.1-0.1,0.1-0.1
	c1.3-1.4,2.6-2.7,4-4.1c1.3-1.4,2.7-2.7,4-4c1.3-1.3,2.5-2.5,3.8-3.7c0.1-0.1,0.3-0.3,0.4-0.4c0,0,0.1-0.1,0.2-0.2
	c1-0.9,2-1.9,2.9-2.8c0.2-0.2,0.4-0.3,0.6-0.5c0.3-0.3,0.6-0.6,0.9-0.8c0.1-0.1,0.2-0.1,0.2-0.2c1.1-1,2.3-2.1,3.4-3.1
	c1.8-1.6,3.7-3.3,5.5-4.9c0.6-0.5,1.2-1,1.8-1.5c4.6-3.9,9.2-7.8,14-11.5c1.2-0.9,2.3-1.8,3.5-2.7c0,0,0,0,0.1-0.1
	c1.2-0.9,2.3-1.8,3.5-2.6c2.8-2.1,5.5-4.1,8.3-6.1c0.9-0.6,1.8-1.3,2.7-1.9c0.4-0.3,0.8-0.5,1.2-0.8c0.2-0.1,0.3-0.2,0.5-0.3
	c1-0.7,2-1.4,3-2c0.1-0.1,0.2-0.2,0.3-0.2c0.2-0.1,0.3-0.2,0.5-0.3c0.5-0.3,0.9-0.6,1.4-0.9c1.2-0.8,2.4-1.6,3.5-2.3
	c0.1-0.1,0.2-0.1,0.3-0.2c0.2-0.2,0.4-0.3,0.7-0.4c0.3-0.2,0.5-0.3,0.8-0.5c0,0,0,0,0.1,0c0,0,0.1-0.1,0.1-0.1c0,0,0.1,0,0.1-0.1
	c1.2-0.8,2.4-1.5,3.6-2.3c0.1,0,0.1-0.1,0.2-0.1c1.6-1,3.2-2,4.8-2.9c0,0,0,0,0.1,0c0.1,0,0.1-0.1,0.2-0.1c1.4-0.9,2.8-1.7,4.3-2.5
	c0.4-0.2,0.8-0.5,1.2-0.7c1-0.6,2-1.2,3.1-1.8c0.7-0.4,1.3-0.8,2-1.1c0.6-0.4,1.2-0.7,1.8-1c1.8-1,3.7-2,5.5-3c0.7-0.3,1.3-0.7,2-1
	c1.6-0.9,3.2-1.7,4.8-2.5c0.2-0.1,0.3-0.2,0.4-0.2c1.2-0.6,2.5-1.3,3.8-1.9c0.6-0.3,1.2-0.6,1.9-0.9c1.1-0.5,2.3-1.1,3.4-1.6
	c0.4-0.2,0.7-0.3,1-0.5c1.5-0.7,3.1-1.4,4.7-2.2c1.5-0.7,3.1-1.4,4.6-2.1c1.5-0.7,3.1-1.4,4.7-2c1.6-0.7,3.2-1.4,4.8-2c0,0,0,0,0,0
	c1.6-0.7,3.2-1.3,4.9-2c1.5-0.6,3-1.2,4.5-1.7c0.2-0.1,0.3-0.1,0.5-0.2c1.4-0.5,2.8-1.1,4.3-1.6c1.5-0.5,3-1.1,4.5-1.6
	c0.3-0.1,0.5-0.2,0.8-0.3c1.4-0.5,2.9-1,4.3-1.5c1.6-0.5,3.2-1.1,4.8-1.6c0,0,0.1,0,0.1,0c1.6-0.5,3.2-1,4.9-1.5
	c1.4-0.4,2.9-0.9,4.3-1.3c0.4-0.1,0.8-0.2,1.2-0.4c1.3-0.4,2.6-0.7,3.9-1.1c0.2-0.1,0.5-0.1,0.7-0.2c1.4-0.4,2.7-0.7,4.1-1.1
	c0.3-0.1,0.7-0.2,1-0.3c1.1-0.3,2.1-0.5,3.2-0.8c0.7-0.2,1.3-0.3,2-0.5c1.2-0.3,2.4-0.6,3.5-0.8c0.4-0.1,0.7-0.2,1.1-0.3
	c1.6-0.4,3.3-0.7,4.9-1.1c1.7-0.4,3.4-0.7,5.1-1.1c0.1,0,0.1,0,0.2,0c3.3-0.7,6.7-1.3,10-1.9c1.7-0.3,3.4-0.6,5.1-0.9
	c0.2,0,0.3-0.1,0.5-0.1c1.5-0.2,3-0.5,4.6-0.7c1.4-0.2,2.9-0.4,4.3-0.6c1.1-0.2,2.3-0.3,3.4-0.5c0.5-0.1,1.1-0.1,1.6-0.2
	c1.1-0.1,2.2-0.3,3.3-0.4c0.5-0.1,1-0.1,1.5-0.2c1.2-0.1,2.5-0.3,3.7-0.4c0.5-0.1,1.1-0.1,1.6-0.2c1-0.1,2-0.2,3-0.3
	c0.7-0.1,1.4-0.1,2.2-0.2c1.1-0.1,2.1-0.2,3.2-0.3c0.5,0,1.1-0.1,1.6-0.1c1.1-0.1,2.2-0.2,3.3-0.2c0.8,0,1.5-0.1,2.3-0.1
	c0.9-0.1,1.9-0.1,2.8-0.2c0.8,0,1.6-0.1,2.4-0.1c0.9,0,1.8-0.1,2.7-0.1c1.7-0.1,3.3-0.1,5-0.2c1.7-0.1,3.5-0.1,5.2-0.1
	c1.8,0,3.6,0,5.4,0c1.4,0,2.8,0,4.1,0c0.6,0,1.3,0,1.9,0c1.3,0,2.7,0,4,0.1c1.7,0,3.4,0.1,5,0.2c0,0,0,0,0,0
	c1.5,0.1,3.1,0.1,4.6,0.2c0.3,0,0.5,0,0.8,0c1.4,0.1,2.8,0.2,4.2,0.2c0.2,0,0.4,0,0.6,0c1.6,0.1,3.2,0.2,4.8,0.3c0,0,0,0,0,0
	c1.6,0.1,3.2,0.3,4.8,0.4c0.1,0,0.2,0,0.3,0c1.3,0.1,2.7,0.2,4,0.4c0.3,0,0.7,0.1,1,0.1c1.5,0.1,3,0.3,4.5,0.5h0
	c1.6,0.2,3.2,0.4,4.8,0.6c0,0,0,0,0.1,0c1.5,0.2,2.9,0.4,4.3,0.6c1.9,0.3,3.8,0.5,5.6,0.8c1.4,0.2,2.8,0.4,4.2,0.7
	c3.4,0.5,6.7,1.2,10.1,1.8c1.5,0.3,3,0.6,4.5,0.9c1.3,0.3,2.5,0.5,3.8,0.8c0.7,0.1,1.3,0.3,2,0.4c1.4,0.3,2.8,0.6,4.3,1
	c0,0,0,0,0.1,0c1.5,0.3,2.9,0.7,4.3,1c0.2,0,0.4,0.1,0.6,0.1c1.4,0.3,2.7,0.7,4.1,1c2.8,0.7,5.5,1.5,8.2,2.2
	c0.4,0.1,0.9,0.2,1.3,0.4c1.4,0.4,2.9,0.8,4.3,1.3c1.5,0.5,3.1,0.9,4.6,1.4c0,0,0.1,0,0.1,0c1.5,0.5,3,0.9,4.5,1.4
	c1.1,0.4,2.3,0.7,3.4,1.1c0.6,0.2,1.3,0.4,2,0.7c3,1,5.9,2,8.8,3.1c1.3,0.5,2.6,0.9,3.8,1.4c1.5,0.6,3,1.1,4.5,1.7
	c0.1,0,0.2,0.1,0.3,0.1c1.4,0.6,2.8,1.1,4.1,1.7c0.2,0.1,0.3,0.1,0.4,0.2c0.1,0,0.3,0.1,0.4,0.2c1.2,0.5,2.4,1,3.5,1.5
	c1.5,0.6,2.9,1.2,4.4,1.9c0.1,0,0.1,0,0.1,0.1c1.4,0.6,2.8,1.2,4.2,1.9c1.4,0.7,2.9,1.3,4.3,2c1.4,0.7,2.9,1.3,4.3,2
	c3,1.4,6,2.9,8.9,4.4c0.9,0.5,1.7,0.9,2.6,1.4c1.8,0.9,3.6,1.9,5.3,2.8c1.1,0.6,2.2,1.2,3.2,1.8c3.2,1.8,6.4,3.6,9.6,5.5
	c0.2,0.1,0.4,0.3,0.7,0.4s0.4,0.3,0.7,0.4c0.3,0.2,0.6,0.4,0.9,0.5c0.3,0.2,0.6,0.4,0.9,0.5c0.5,0.3,0.9,0.5,1.4,0.8
	c1.1,0.7,2.2,1.3,3.2,2c1.3,0.8,2.5,1.6,3.8,2.4c1.4,0.9,2.8,1.8,4.3,2.8c1.2,0.8,2.4,1.6,3.6,2.4c0.1,0,0.1,0.1,0.2,0.1
	c1.2,0.8,2.5,1.7,3.7,2.5c1.3,0.9,2.6,1.8,3.8,2.7c0.7,0.5,1.4,1,2,1.5c0.8,0.6,1.6,1.1,2.4,1.7c0.2,0.1,0.3,0.2,0.5,0.4
	c1,0.8,2,1.5,3,2.3c0.3,0.2,0.7,0.5,1,0.8c1.1,0.8,2.2,1.7,3.3,2.5c1.2,0.9,2.4,1.9,3.7,2.8c0.2,0.2,0.4,0.3,0.6,0.5
	c1.1,0.9,2.3,1.8,3.4,2.7c1.3,1,2.5,2.1,3.8,3.1c1.2,1,2.5,2.1,3.7,3.1c0,0,0.1,0.1,0.1,0.1c1.2,1,2.4,2.1,3.6,3.1
	c1.1,1,2.2,2,3.4,3c0.3,0.3,0.6,0.5,0.9,0.8c0.7,0.6,1.4,1.2,2,1.9c0.1,0.1,0.3,0.2,0.4,0.4c0,0,0,0,0,0c0.3,0.3,0.6,0.6,0.9,0.8
	c0.8,0.7,1.6,1.5,2.3,2.2c0.5,0.5,1,0.9,1.5,1.4c0.8,0.8,1.7,1.6,2.5,2.4c0.2,0.2,0.4,0.4,0.6,0.6c1.1,1.1,2.2,2.2,3.3,3.3
	c1.2,1.1,2.3,2.3,3.4,3.5c0.8,0.8,1.7,1.7,2.5,2.6c0.2,0.2,0.5,0.5,0.7,0.7c0.8,0.9,1.7,1.8,2.5,2.7c0.1,0.1,0.1,0.1,0.2,0.2
	c0.7,0.8,1.4,1.5,2.1,2.3c0.5,0.5,1,1.1,1.5,1.6c0.6,0.7,1.3,1.4,1.9,2.1c1.8,2,3.5,3.9,5.2,5.9c1.6,1.9,3.2,3.8,4.8,5.7
	c0.2,0.2,0.4,0.4,0.5,0.6c0.7,0.9,1.5,1.8,2.2,2.7c0,0,0,0,0.1,0.1c0.8,1,1.6,2,2.4,3c0.8,1,1.6,2,2.4,3.1c0.6,0.8,1.2,1.5,1.8,2.3
	c0.6,0.8,1.2,1.6,1.8,2.3c1.2,1.6,2.4,3.2,3.5,4.7c0.6,0.9,1.3,1.7,1.9,2.6c0.9,1.3,1.8,2.5,2.7,3.8c0.9,1.2,1.7,2.5,2.6,3.7
	c1.4,2,2.8,4,4.1,6.1c0.7,1.1,1.4,2.2,2.2,3.3c0.7,1.1,1.4,2.2,2.1,3.3c0.6,1,1.2,2,1.9,3c0.2,0.4,0.4,0.7,0.7,1.1
	c0.5,0.8,1,1.7,1.6,2.5c0.7,1.1,1.4,2.3,2,3.4c0.6,1,1.2,2,1.8,3.1c0.6,1,1.1,2,1.7,3c0.6,1,1.1,2,1.7,3c1.1,2,2.2,4.1,3.3,6.1
	c0.5,1,1.1,2,1.6,3.1c0,0,0,0.1,0,0.1c0.5,1,1,1.9,1.5,2.9c1.1,2.2,2.2,4.3,3.2,6.5c0.4,0.9,0.9,1.8,1.3,2.7
	c0.6,1.3,1.2,2.6,1.8,3.9c0.4,0.9,0.9,1.9,1.3,2.8c0.4,0.8,0.7,1.7,1.1,2.5c0.2,0.4,0.4,0.9,0.6,1.3c0.4,0.9,0.8,1.7,1.1,2.6
	c0.5,1.1,0.9,2.1,1.4,3.2c0.5,1.1,0.9,2.2,1.4,3.2c0.2,0.6,0.5,1.2,0.7,1.8c0.4,0.9,0.7,1.8,1.1,2.7c0.2,0.6,0.5,1.1,0.7,1.7
	c0.1,0.3,0.2,0.6,0.3,0.9c0.4,1.1,0.9,2.2,1.3,3.3c0.2,0.4,0.3,0.8,0.4,1.2c0.5,1.2,0.9,2.4,1.3,3.5c0.5,1.3,1,2.6,1.4,4
	c0.2,0.6,0.4,1.3,0.7,1.9c0.4,1.1,0.8,2.3,1.2,3.4c0.4,1.2,0.8,2.5,1.2,3.7c0.3,0.8,0.6,1.7,0.8,2.6c0.4,1.1,0.7,2.2,1,3.2
	c0,0,0,0.1,0,0.1c0.5,1.5,0.9,3,1.4,4.6c0,0,0,0.1,0,0.2c0.4,1.5,0.9,3,1.3,4.5c0,0,0,0.1,0,0.1c0,0,0,0.1,0,0.1
	c0.4,1.5,0.8,3,1.2,4.5c0.1,0.5,0.3,1,0.4,1.5c0.2,0.9,0.5,1.8,0.7,2.7c0.2,0.9,0.4,1.8,0.7,2.6c0.3,1.2,0.6,2.4,0.9,3.6
	c0.1,0.4,0.2,0.7,0.3,1.1c0.3,1.2,0.6,2.5,0.8,3.7c0.1,0.5,0.2,1,0.3,1.5c0,0.1,0,0.2,0.1,0.2c0.3,1.2,0.5,2.4,0.8,3.6
	c0.2,1.2,0.5,2.3,0.7,3.5c0,0,0,0.1,0,0.2c0.2,1.2,0.5,2.3,0.7,3.5c0.2,1.2,0.4,2.4,0.7,3.6c0.2,1.3,0.5,2.6,0.7,3.9
	c0.1,0.6,0.2,1.1,0.3,1.7c0.2,1.3,0.4,2.7,0.6,4c0.1,0.8,0.2,1.6,0.4,2.4c0.1,0.8,0.2,1.6,0.3,2.4c0.2,1.6,0.4,3.2,0.7,4.9
	c0.1,0.8,0.2,1.5,0.3,2.3c0.1,0.8,0.2,1.5,0.3,2.3c0,0.2,0.1,0.5,0.1,0.7c0.1,0.4,0.1,0.8,0.1,1.2c0.1,0.8,0.2,1.6,0.2,2.4
	c0,0.3,0.1,0.6,0.1,0.9c0.2,1.5,0.3,3,0.4,4.6c0,0.6,0.1,1.1,0.2,1.7c0,0.3,0.1,0.7,0.1,1c0.2,2.4,0.4,4.9,0.5,7.3
	c0.1,1.4,0.2,2.8,0.2,4.2c0,0.7,0.1,1.5,0.1,2.2c0.1,1.1,0.1,2.3,0.1,3.4c0.1,2,0.2,4,0.2,6.1c0,1.2,0.1,2.3,0.1,3.5
	c0,0.4,0,0.8,0,1.2C1347.7,527.8,1347.7,529.4,1347.7,531z"/>
<rect id="rain-5" x="1155.6" y="195.5" class="st1" width="5" height="333.1"/>
<rect id="rain-3" x="1045.6" y="134.4" class="st1" width="5" height="390.4"/>
<rect id="rain-2" x="950.2" y="144.4" class="st1" width="5" height="458.6"/>
<rect id="rain-1" x="845.2" y="171.5" class="st1" width="5" height="438.1"/>
<circle id="moon" class="st2" cx="958.2" cy="397.3" r="156.4"/>
<g id="man">
	<polygon id="coat" class="st1" points="1070.4,530.1 1010.2,501.1 1010.2,499 1041.5,483 1041.5,481 1001.4,451.6 900.1,492.5 
		927,519.2 927,523.6 902.3,534.9 883,903.2 1049.2,903.2 1044,789.2 1100.1,703.6 1100.1,692.5 	"/>
	<path id="hat" class="st1" d="M895.3,410.3c0-2.2,0-1.6-0.1-3.8c9.3-1.7,18.5-3.5,27.8-5.2c5.3-13.5,10.7-27,16-40.4l67.2,8.9
		l2.4,42.7c8.3-0.1,14.1,0.1,22.4,0c0,0.7,0,1.5,0,2.2c-3.9,1.9-22.7,10-27.7,11.9c-10.2,0.8-21.4,1-33.6,0.3
		C939.4,425,914.1,417.7,895.3,410.3z"/>
	<path id="head" class="st1" d="M926.4,414.8l-13,34h9.2c0,0,5.7,30.4,6.5,32.1c0.8,1.6,33.8,9.7,33.8,9.7l41-6.8l-4.6-28.2l8-28.3
		l-4.9-32.6l-16.9-18.8l-22.1-7.9l-33.8,26.8l-6.8,21.3L926.4,414.8z"/>
	<path id="tie" class="st0" d="M956.3,494.5l-15.8,29.2v6.7l8.9,45.1c0,0,4.6,0.1,4.5,0s18-42.7,18-42.7V526l-13.5-31.5H956.3z"/>
</g>
<g id="lattice">
	<rect x="618.4" y="711.9" class="st1" width="169.2" height="25"/>
	<path class="st1" d="M795.4,886.6v11.2h-20v-21c1.1,0.6,2.3,1.2,3.4,1.8c0.3,0.1,0.5,0.3,0.8,0.4c0.3,0.2,0.7,0.3,1,0.5
		c0.4,0.2,0.8,0.4,1.2,0.6c0.9,0.4,1.8,0.9,2.6,1.3c0.6,0.3,1.2,0.6,1.9,0.9c1.1,0.5,2.3,1.1,3.4,1.6c0.4,0.2,0.7,0.3,1,0.5
		C792.3,885.2,793.8,885.9,795.4,886.6z"/>
	<path class="st1" d="M795.4,168.9v6.4c-6.8,3.1-13.4,6.3-20,9.8v-16.2H795.4z"/>
	<path class="st1" d="M795.4,175.3v711.4c-6.8-3.1-13.4-6.3-20-9.8V185.1C781.9,181.6,788.6,178.3,795.4,175.3z"/>
	<path class="st1" d="M755.4,191.1v5.2c-6.8,4.1-13.5,8.4-20,12.9v-18.2H755.4z"/>
	<path class="st1" d="M755.4,196.4V867h-20V209.3C741.9,204.8,748.6,200.5,755.4,196.4z"/>
	<path class="st1" d="M694.9,241.4v579.1c-22.6-20.4-42.7-43.5-60-68.7V310C652.2,284.9,672.3,261.8,694.9,241.4z"/>
	<rect x="658.1" y="279.6" class="st1" width="136.8" height="25"/>
	<path class="st1" d="M595.7,382.4c-3.4,8.2-6.5,16.5-9.3,25h-7.3v-25H595.7z"/>
	<path class="st1" d="M793.3,382.4v25H586.4c2.8-8.5,5.9-16.8,9.3-25H793.3z"/>
	<rect x="656.5" y="432.4" class="st1" width="136.8" height="25"/>
	<rect x="656.5" y="482.4" class="st1" width="136.8" height="25"/>
	<rect x="566.8" y="532.4" class="st1" width="223.4" height="25"/>
	<rect x="658.6" y="661.9" class="st1" width="136.8" height="25"/>
</g>
<g id="wall">
	<path class="st1" d="M1292.1,731.9c-10.6,17.6-22.5,34.3-35.7,50H1181v-50H1292.1z"/>
	<path class="st1" d="M1248.2,791.4c-14.6,16.4-30.7,31.5-47.8,45.2v-45.2H1248.2z"/>
	<path class="st1" d="M1175.3,855c-31.2,21.1-65.6,37.7-102.3,49.1V855H1175.3z"/>
	
		<rect id="brick_00000042732644089445172220000007701878801791608466_" x="1171.4" y="447.2" class="st1" width="70.5" height="50"/>
	<rect id="brick_00000094591424303910262530000007769161242978155700_" x="1148.8" y="675" class="st1" width="92.1" height="50"/>
	<rect id="brick_00000134235224111633982270000011214324356042303159_" x="1110.4" y="731.9" class="st1" width="60" height="50"/>
	<rect id="brick_00000070092690707682655690000012353878695679751334_" x="1100.4" y="791.4" class="st1" width="90" height="50"/>
	
		<rect id="brick_00000106148335907446501140000002838245340176688043_" x="1182.5" y="617.5" class="st1" width="88.3" height="50"/>
	<rect id="brick_00000097468127666839644580000012237825174516568230_" x="1139.4" y="560" class="st1" width="61.1" height="50"/>
	<rect id="brick_00000155106625981172952810000016900337423028107710_" x="858.3" y="791.4" class="st3" width="130" height="50"/>
	<path class="st1" d="M1235.7,257.1h-93.3v-50h33.3C1197.3,221.8,1217.4,238.6,1235.7,257.1z"/>
	<path class="st1" d="M1285.4,319.3h-105.8v-50h67.4C1261.2,284.9,1274,301.6,1285.4,319.3z"/>
	<path class="st1" d="M1318.6,382.6h-94.4v-50h69.6C1303.1,348.6,1311.4,365.3,1318.6,382.6z"/>
	<rect id="brick_00000030481108630589543590000018021072388433652865_" x="1203.4" y="388.8" class="st1" width="130" height="50"/>
	<path class="st1" d="M1346.3,497.2h-90.8v-50h83.2C1342.3,463.5,1344.8,480.2,1346.3,497.2z"/>
	
		<rect id="brick_00000119820571367873148710000004153966576834174653_" x="1293.9" y="503.6" class="st1" width="56.2" height="50"/>
	<rect id="brick_00000021080509193760453700000012861871399492927935_" x="1211.9" y="560" class="st1" width="130" height="50"/>
	<path class="st1" d="M1338.1,617.5c-0.2,0.7-0.3,1.4-0.5,2.1c-1,4.3-2.1,8.6-3.2,12.9c-0.2,0.7-0.4,1.5-0.6,2.2
		c-0.6,2.4-1.3,4.7-2,7c-0.3,1-0.6,2-0.9,3c-0.3,1-0.6,2.1-1,3.1c-0.4,1.2-0.8,2.5-1.2,3.7c-0.3,1.1-0.7,2.2-1.1,3.3
		c-0.2,0.7-0.5,1.5-0.8,2.2c-0.4,1.2-0.8,2.4-1.2,3.5c-0.5,1.3-0.9,2.6-1.4,3.9c-0.2,0.6-0.4,1.2-0.6,1.8c-0.1,0.4-0.3,0.7-0.4,1.1
		h-43v-50H1338.1z"/>
	<path class="st1" d="M1320.3,675c-6.9,17.3-14.9,34-24.1,50H1256v-50H1320.3z"/>
	<rect id="brick_00000000205669696229198760000006189090699965874829_" x="781.2" y="770.5" class="st1" width="38.2" height="50"/>
	<path class="st1" d="M857,858.6v50h-0.1c-1.2-0.3-2.4-0.6-3.6-1c-0.2-0.1-0.5-0.1-0.7-0.2c-1.3-0.4-2.6-0.7-3.9-1.1
		c-0.4-0.1-0.8-0.2-1.2-0.4c-1.5-0.4-2.9-0.8-4.3-1.3c-1.6-0.5-3.2-1-4.9-1.5c0,0-0.1,0-0.1,0c-1.6-0.5-3.2-1-4.8-1.6
		c-1.5-0.5-2.9-1-4.3-1.5c-0.3-0.1-0.6-0.2-0.8-0.3c-1.5-0.5-3-1.1-4.5-1.6c-1.6-0.6-3.2-1.2-4.8-1.8c-1.6-0.6-3.2-1.2-4.8-1.8
		c-0.1,0-0.2-0.1-0.3-0.1c-3.1-1.2-6.1-2.5-9.2-3.8c-1.6-0.7-3.1-1.3-4.7-2c-1.6-0.7-3.1-1.4-4.6-2.1v11.2h-14.8v-39.2H857z"/>
	<g>
		<path class="st1" d="M491.9,744.9"/>
	</g>
	
		<rect id="brick_00000145757851525019188540000014735817252252738211_" x="1188.1" y="503.6" class="st1" width="100.8" height="50"/>
</g>
<rect id="rain-4" x="1100.6" y="166.5" class="st1" width="5" height="330.7"/>
<rect id="rain-0" x="814.4" y="163" class="st1" width="5" height="479.4"/>
<path id="border" class="st4" d="M1347.7,531c0,1.6,0,3.2,0,4.9c0,0.2,0,0.5,0,0.7c0,1.5,0,3-0.1,4.5v0.2c0,1.6-0.1,3.2-0.2,4.7
	c0,0.1,0,0.2,0,0.3c0,1.5-0.1,3.1-0.2,4.6c0,0.2,0,0.3,0,0.5c0,1-0.1,2-0.2,3c0,0.8-0.1,1.6-0.2,2.5c-0.1,1.8-0.2,3.7-0.4,5.5
	c-0.1,1.2-0.2,2.5-0.3,3.7c-0.1,1.6-0.3,3.3-0.5,4.9c-0.2,1.6-0.3,3.3-0.5,4.9c-0.2,1.6-0.4,3.2-0.6,4.8c0,0.1,0,0.1,0,0.2
	c-0.2,1.2-0.3,2.5-0.5,3.7c-0.5,3.4-1,6.7-1.5,10c-0.2,1.3-0.5,2.7-0.7,4c0,0,0,0.1,0,0.1c0,0,0,0,0,0c-0.2,0.9-0.3,1.9-0.5,2.8
	c-0.4,2-0.7,4-1.2,6c-0.2,0.8-0.3,1.7-0.5,2.5c-0.1,0.4-0.2,0.9-0.3,1.3c-0.2,0.9-0.4,1.8-0.6,2.6c-0.2,0.8-0.3,1.6-0.5,2.4
	c-0.1,0.4-0.2,0.7-0.2,1.1c-0.2,0.7-0.3,1.4-0.5,2.1c-1,4.3-2.1,8.6-3.2,12.9c-0.2,0.7-0.4,1.5-0.6,2.2c-0.6,2.4-1.3,4.7-2,7
	c-0.3,1-0.6,2-0.9,3c-0.3,1-0.6,2.1-1,3.1c-0.4,1.2-0.8,2.5-1.2,3.7c-0.3,1.1-0.7,2.2-1.1,3.3c-0.2,0.7-0.5,1.5-0.8,2.2
	c-0.4,1.2-0.8,2.4-1.2,3.5c-0.5,1.3-0.9,2.6-1.4,3.9c-0.2,0.6-0.4,1.2-0.6,1.8c-0.1,0.4-0.3,0.7-0.4,1.1c-0.9,2.5-1.9,5-2.9,7.5
	c-0.2,0.6-0.5,1.2-0.8,1.9c0,0,0,0,0,0.1c-0.2,0.6-0.5,1.1-0.7,1.7c-0.6,1.5-1.2,2.9-1.8,4.4c-0.2,0.4-0.3,0.7-0.5,1.1
	c-0.2,0.4-0.3,0.7-0.5,1.1c-0.3,0.7-0.6,1.5-1,2.2c-0.4,0.9-0.8,1.8-1.2,2.6c-0.2,0.6-0.5,1.1-0.8,1.7c-0.6,1.4-1.3,2.9-2,4.3
	c-0.7,1.4-1.3,2.9-2,4.3c-0.3,0.7-0.7,1.4-1,2.1c0,0,0,0,0,0c-0.3,0.7-0.7,1.4-1,2.1c-0.5,1.1-1.1,2.2-1.6,3.2
	c0,0.1-0.1,0.2-0.1,0.2c-0.3,0.6-0.6,1.2-0.9,1.8c-0.4,0.9-0.9,1.7-1.3,2.5c-0.3,0.6-0.6,1.1-0.9,1.7c-0.6,1-1.1,2.1-1.7,3.1
	c-0.6,1-1.1,2.1-1.7,3.1c0,0,0,0.1-0.1,0.1c-0.9,1.5-1.7,3.1-2.6,4.6c-0.7,1.3-1.5,2.6-2.2,3.8c-0.6,1-1.2,2.1-1.8,3.1
	c-0.7,1.1-1.3,2.2-2,3.3c-0.7,1.1-1.3,2.2-2,3.3c-1.4,2.2-2.8,4.3-4.2,6.5c-0.5,0.8-1,1.6-1.6,2.4c-0.2,0.4-0.5,0.8-0.8,1.1
	c-0.6,0.9-1.2,1.8-1.9,2.8c-0.6,0.9-1.2,1.7-1.8,2.6c-0.7,1-1.4,2-2.1,3c-0.9,1.3-1.9,2.7-2.8,4c-0.5,0.7-1,1.3-1.5,2
	c0,0-0.1,0.1-0.1,0.1c-0.4,0.5-0.8,1.1-1.2,1.6c-0.6,0.8-1.2,1.6-1.8,2.4c-0.5,0.6-0.9,1.2-1.4,1.8c-0.1,0.1-0.1,0.2-0.2,0.2
	c-0.5,0.7-1,1.4-1.6,2c-0.1,0.2-0.3,0.4-0.4,0.6c-2.7,3.5-5.5,6.9-8.4,10.3c-0.7,0.8-1.3,1.6-2,2.4c-1.3,1.6-2.7,3.2-4.1,4.7
	c-0.7,0.8-1.4,1.6-2.1,2.3c-0.9,1-1.8,2-2.6,2.9c-0.2,0.2-0.3,0.3-0.4,0.5c-0.8,0.9-1.7,1.8-2.5,2.7c-1.9,2-3.8,4-5.7,6
	c-1,1-1.9,2-2.9,2.9c-1,1-1.9,1.9-2.9,2.9c-0.7,0.7-1.4,1.4-2.2,2.1c-0.1,0.1-0.2,0.1-0.2,0.2c-0.5,0.5-1.1,1-1.6,1.5
	c-0.9,0.8-1.7,1.6-2.6,2.5c-0.2,0.2-0.3,0.3-0.5,0.5c-1.1,1-2.2,2.1-3.4,3.1c-0.1,0.1-0.3,0.3-0.5,0.4c-0.1,0.1-0.2,0.2-0.4,0.3
	c-0.5,0.5-1.1,1-1.7,1.5c-0.7,0.6-1.4,1.2-2,1.8c-2,1.8-4,3.5-6,5.2c-0.1,0.1-0.2,0.1-0.3,0.2c-1,0.9-2.1,1.7-3.1,2.6
	c-2.1,1.8-4.2,3.5-6.4,5.2c-1,0.8-2,1.6-3,2.4c-1,0.8-2.1,1.6-3.1,2.4c-2.2,1.6-4.3,3.3-6.6,4.9c-0.9,0.7-1.9,1.4-2.8,2
	c-1,0.7-2,1.5-3,2.2c-2.2,1.5-4.3,3-6.5,4.5c-1.2,0.8-2.4,1.6-3.6,2.4c-0.8,0.5-1.5,1-2.3,1.5c-1,0.6-2,1.3-3,1.9
	c-1.1,0.7-2.1,1.3-3.2,2c-0.8,0.5-1.6,1-2.5,1.5c-1.1,0.7-2.2,1.3-3.3,2c-1,0.6-2,1.2-3,1.8c-0.8,0.5-1.5,0.9-2.3,1.3
	c-1.1,0.6-2.1,1.2-3.2,1.8c-0.5,0.3-1,0.6-1.5,0.8c0,0,0,0-0.1,0c-0.7,0.4-1.5,0.8-2.2,1.2c-0.2,0.1-0.3,0.2-0.5,0.2
	c-0.8,0.5-1.7,0.9-2.5,1.4c-3.2,1.7-6.4,3.4-9.7,5c-1,0.5-2,1-3.1,1.5c-1.9,0.9-3.7,1.8-5.6,2.7c-0.8,0.4-1.7,0.8-2.5,1.2
	c-0.9,0.4-1.9,0.9-2.8,1.3c-0.3,0.1-0.6,0.3-1,0.5c-1.3,0.6-2.5,1.1-3.8,1.7c-2.5,1.1-4.9,2.1-7.4,3.2c-0.8,0.3-1.5,0.6-2.3,1
	c-1.3,0.5-2.6,1-3.8,1.5c-2.2,0.9-4.5,1.7-6.7,2.6c-0.9,0.4-1.9,0.7-2.8,1c-1,0.4-2.1,0.8-3.1,1.1c-0.1,0-0.2,0.1-0.3,0.1
	c-1.3,0.5-2.7,1-4.1,1.4c-0.9,0.3-1.8,0.6-2.7,0.9c-0.9,0.3-1.8,0.6-2.8,0.9c-1.1,0.4-2.3,0.7-3.4,1.1c-0.4,0.1-0.8,0.3-1.3,0.4
	c-1.2,0.4-2.4,0.7-3.5,1.1c-0.7,0.2-1.3,0.4-2,0.6c-1,0.3-1.9,0.6-2.9,0.8c-0.2,0.1-0.5,0.1-0.8,0.2c-1.2,0.3-2.4,0.7-3.6,1
	c-2.9,0.8-5.8,1.6-8.8,2.3c-0.9,0.2-1.9,0.5-2.8,0.7c-2.2,0.5-4.3,1-6.5,1.5c-0.8,0.2-1.6,0.4-2.4,0.5c-1.2,0.3-2.4,0.5-3.6,0.8
	c-3.7,0.8-7.3,1.5-11,2.1c-0.9,0.2-1.8,0.3-2.7,0.5c-0.6,0.1-1.2,0.2-1.9,0.3c-1.4,0.2-2.9,0.5-4.3,0.7c-1.4,0.2-2.9,0.4-4.3,0.6
	c-0.2,0-0.4,0.1-0.6,0.1c-1.4,0.2-2.7,0.4-4,0.5c-0.2,0-0.5,0.1-0.7,0.1c-1.2,0.2-2.5,0.3-3.7,0.5c-0.5,0.1-1,0.1-1.5,0.2
	c-1.4,0.2-2.9,0.3-4.3,0.5c-1.5,0.2-3,0.3-4.4,0.4c-0.2,0-0.5,0-0.7,0.1c-1.6,0.1-3.2,0.3-4.8,0.4c-1.4,0.1-2.7,0.2-4.1,0.3
	c-0.7,0-1.5,0.1-2.2,0.1c-1.2,0.1-2.4,0.1-3.7,0.2c-1.5,0.1-3.1,0.2-4.6,0.2c-0.3,0-0.6,0-0.9,0c-1.5,0.1-3,0.1-4.5,0.1H967
	c-1.3,0-2.6,0.1-3.9,0.1c-0.6,0-1.3,0-2,0c-1.4,0-2.8,0-4.1,0c-1.8,0-3.6,0-5.4,0c-1.7,0-3.5,0-5.2-0.1c-1.7,0-3.4-0.1-5-0.2
	c-0.9,0-1.8-0.1-2.7-0.1c-0.8,0-1.6-0.1-2.4-0.1c-1,0-1.9-0.1-2.8-0.2c-0.8,0-1.5-0.1-2.3-0.1c-1.1-0.1-2.2-0.1-3.3-0.2
	c-0.5,0-1.1-0.1-1.6-0.1c-1.1-0.1-2.1-0.2-3.2-0.3c-0.7-0.1-1.4-0.1-2.2-0.2c-1-0.1-2-0.2-3-0.3c-0.5,0-1.1-0.1-1.6-0.2
	c-1.2-0.1-2.5-0.2-3.7-0.4c-0.5-0.1-1-0.1-1.5-0.2c-1.1-0.1-2.2-0.2-3.3-0.4c-0.5-0.1-1.1-0.1-1.6-0.2c-1.2-0.1-2.3-0.3-3.4-0.5
	c-1.5-0.2-2.9-0.4-4.3-0.6c-1.5-0.2-3-0.5-4.6-0.7c-0.2,0-0.3-0.1-0.5-0.1c-1.7-0.3-3.4-0.6-5.1-0.9c-3.4-0.6-6.7-1.2-10-1.9
	c-0.1,0-0.1,0-0.2,0c-1.7-0.4-3.4-0.7-5.1-1.1c-1.6-0.4-3.3-0.7-4.9-1.1c-0.4-0.1-0.7-0.2-1.1-0.3c-1.2-0.3-2.4-0.6-3.5-0.9
	c-0.7-0.2-1.3-0.3-2-0.5c-1.1-0.3-2.1-0.5-3.2-0.8c-0.3-0.1-0.7-0.2-1-0.3c-0.2,0-0.3-0.1-0.5-0.1c-1.2-0.3-2.4-0.6-3.6-1
	c-0.2-0.1-0.5-0.1-0.7-0.2c-1.3-0.4-2.6-0.7-3.9-1.1c-0.4-0.1-0.8-0.2-1.2-0.4c-1.5-0.4-2.9-0.8-4.3-1.3c-1.6-0.5-3.2-1-4.9-1.5
	c0,0-0.1,0-0.1,0c-1.6-0.5-3.2-1-4.8-1.6c-1.5-0.5-2.9-1-4.3-1.5c-0.3-0.1-0.6-0.2-0.8-0.3c-1.5-0.5-3-1.1-4.5-1.6
	c-1.6-0.6-3.2-1.2-4.8-1.8c-1.6-0.6-3.2-1.2-4.8-1.8c-0.1,0-0.2-0.1-0.3-0.1c-3.1-1.2-6.1-2.5-9.2-3.8c-1.6-0.7-3.1-1.3-4.7-2
	c-1.6-0.7-3.1-1.4-4.6-2.1c-1.6-0.7-3.1-1.4-4.7-2.1c-0.3-0.2-0.7-0.3-1-0.5c-1.1-0.5-2.3-1.1-3.4-1.6c-0.6-0.3-1.2-0.6-1.9-0.9
	c-0.9-0.4-1.8-0.9-2.6-1.3c-0.4-0.2-0.8-0.4-1.2-0.6c-0.3-0.2-0.6-0.3-1-0.5c-0.3-0.1-0.5-0.3-0.8-0.4c-1.1-0.6-2.3-1.2-3.4-1.8
	c-1.5-0.8-3-1.6-4.5-2.4c-0.8-0.4-1.6-0.9-2.4-1.4c-0.9-0.5-1.7-0.9-2.5-1.4c-0.5-0.2-0.9-0.5-1.3-0.8c-1.2-0.7-2.5-1.4-3.7-2.1
	c-0.3-0.2-0.7-0.4-1-0.6c-1.4-0.8-2.9-1.7-4.3-2.5c-0.1,0-0.1-0.1-0.2-0.1c0,0,0,0-0.1,0c-1.6-1-3.2-2-4.8-3c-0.1,0-0.2-0.1-0.2-0.1
	c-1.5-1-3.1-1.9-4.6-2.9c-1.3-0.8-2.5-1.6-3.8-2.5c-1-0.6-2-1.3-3-2c-1.2-0.8-2.4-1.6-3.5-2.4c-0.4-0.3-0.8-0.5-1.2-0.8
	c-0.8-0.5-1.5-1.1-2.3-1.6c-0.6-0.4-1.2-0.9-1.8-1.3c-1-0.7-2-1.4-2.9-2.1c-1.3-0.9-2.5-1.8-3.8-2.8c-0.9-0.7-1.8-1.4-2.8-2.1
	c-0.6-0.5-1.3-1-1.9-1.4c-0.9-0.7-1.7-1.3-2.6-2c-2.2-1.7-4.4-3.5-6.6-5.3c-0.8-0.7-1.7-1.4-2.5-2.1c-1.7-1.4-3.3-2.8-4.9-4.2
	c-0.6-0.5-1.2-1-1.8-1.5c-1.8-1.6-3.7-3.2-5.5-4.9c-1.3-1.2-2.6-2.4-3.9-3.6c-0.2-0.2-0.4-0.4-0.6-0.6c-0.2-0.2-0.4-0.3-0.6-0.5
	c-1-0.9-2-1.9-2.9-2.8c-0.1-0.1-0.1-0.1-0.2-0.2c-0.1-0.1-0.3-0.3-0.4-0.4c-1.3-1.2-2.6-2.5-3.8-3.7c-1.4-1.3-2.7-2.7-4-4
	c-1.3-1.4-2.7-2.7-4-4.1c0,0-0.1-0.1-0.1-0.1c-1.3-1.3-2.5-2.7-3.8-4c0,0,0-0.1-0.1-0.1c-1.2-1.2-2.3-2.5-3.4-3.7
	c-0.2-0.2-0.4-0.5-0.6-0.7c-0.1-0.1-0.2-0.2-0.3-0.3c-1.1-1.2-2.1-2.4-3.2-3.6c0,0,0,0-0.1-0.1c-1.2-1.4-2.5-2.9-3.7-4.3
	c-1.2-1.4-2.3-2.8-3.5-4.2c-0.1-0.1-0.1-0.1-0.2-0.2c-1.2-1.5-2.4-2.9-3.6-4.4c0,0,0,0,0-0.1c-1.1-1.4-2.2-2.8-3.3-4.1
	c-0.2-0.2-0.3-0.4-0.5-0.6c-1.1-1.4-2.1-2.7-3.1-4.1c0,0-0.1-0.1-0.1-0.1c-1.1-1.5-2.3-3-3.4-4.5c-1-1.4-2-2.7-3-4.1
	c-0.1-0.2-0.3-0.4-0.4-0.6c-1.1-1.5-2.2-3.1-3.2-4.6c-0.7-1.1-1.5-2.1-2.2-3.2c-1.2-1.8-2.4-3.6-3.6-5.4c-0.5-0.8-1.1-1.7-1.6-2.5
	c-0.8-1.2-1.6-2.5-2.4-3.8c-0.8-1.2-1.5-2.4-2.2-3.7c-0.7-1.2-1.4-2.4-2.1-3.5c-0.8-1.3-1.6-2.6-2.3-4c-0.9-1.6-1.8-3.1-2.7-4.7
	c-0.8-1.4-1.5-2.7-2.3-4.1c-0.3-0.6-0.6-1.2-1-1.8c-0.7-1.2-1.3-2.4-1.9-3.7c-0.7-1.4-1.4-2.8-2.1-4.2c-0.3-0.5-0.5-1.1-0.8-1.6
	c-0.4-0.8-0.8-1.6-1.2-2.4c-0.4-0.8-0.8-1.5-1.1-2.3c-0.4-0.8-0.7-1.5-1.1-2.3c-0.4-0.8-0.8-1.7-1.2-2.5c-0.1-0.2-0.2-0.5-0.3-0.7
	c-0.6-1.2-1.1-2.5-1.7-3.7c-0.7-1.4-1.3-2.9-1.9-4.3c-0.6-1.3-1.1-2.5-1.6-3.8c-0.1-0.2-0.2-0.5-0.3-0.7c-0.4-0.9-0.7-1.7-1.1-2.6
	c-0.4-1-0.8-2-1.3-3.1c-0.1-0.2-0.2-0.5-0.3-0.8c-0.6-1.6-1.3-3.2-1.9-4.8c-0.5-1.4-1-2.7-1.5-4.1c-0.2-0.6-0.4-1.2-0.6-1.7
	c-0.3-0.8-0.6-1.6-0.9-2.4c-0.3-0.9-0.7-1.8-1-2.7c0-0.1-0.1-0.3-0.1-0.4c-0.5-1.4-1-2.8-1.5-4.2c-0.7-2.1-1.4-4.3-2.1-6.4
	c-0.4-1.2-0.8-2.4-1.1-3.5c-0.4-1.4-0.9-2.9-1.3-4.3c-0.4-1.3-0.8-2.7-1.1-4c0-0.1,0-0.1-0.1-0.2c-0.4-1.5-0.8-3-1.2-4.4
	c-0.4-1.5-0.8-3.1-1.2-4.7c-0.4-1.4-0.7-2.9-1.1-4.3c-0.9-3.6-1.7-7.2-2.5-10.9c-0.3-1.2-0.5-2.5-0.8-3.7c-0.3-1.5-0.6-3-0.9-4.5
	c0-0.1,0-0.2,0-0.2c-0.3-1.6-0.6-3.2-0.9-4.8c0-0.2-0.1-0.3-0.1-0.5c-0.2-1.3-0.4-2.5-0.7-3.8c-0.3-1.9-0.6-3.7-0.9-5.6
	c-0.2-1.5-0.4-3-0.7-4.5c0,0,0-0.1,0-0.1c-0.2-1.5-0.4-3-0.6-4.5c0-0.3-0.1-0.7-0.1-1c-0.2-1.4-0.4-2.8-0.5-4.2
	c-0.2-1.4-0.3-2.8-0.5-4.2c0-0.3-0.1-0.6-0.1-0.9c-0.3-3.2-0.6-6.3-0.9-9.5c-0.1-1.3-0.2-2.5-0.3-3.8c0-0.7-0.1-1.3-0.1-2
	c-0.1-1.4-0.2-2.8-0.2-4.2c0-0.1,0-0.1,0-0.2c-0.1-1.4-0.1-2.8-0.2-4.2v0c0-0.7-0.1-1.5-0.1-2.2c0-0.9-0.1-1.8-0.1-2.7
	c0-0.6,0-1.1,0-1.7c0-0.9,0-1.8,0-2.7c0-0.7,0-1.4,0-2.1c0-1.4,0-2.9,0-4.3c0-2,0-4,0-6c0-1.4,0-2.7,0.1-4c0-1.6,0.1-3.1,0.1-4.7
	c0.1-1.8,0.1-3.6,0.2-5.4c0.1-1.5,0.2-3.1,0.3-4.6c0-0.3,0-0.7,0.1-1c0.1-1.3,0.2-2.6,0.3-3.9c0-0.3,0-0.7,0.1-1
	c0.1-1.2,0.2-2.3,0.3-3.5c0-0.4,0.1-0.7,0.1-1.1c0.1-1.6,0.3-3.1,0.4-4.7v0c0.2-1.6,0.3-3.2,0.5-4.8c0,0,0-0.1,0-0.1
	c0.2-1.4,0.3-2.7,0.5-4.1c0.1-0.5,0.1-1,0.2-1.5c0.2-1.4,0.3-2.7,0.5-4c0,0,0,0,0,0c0.2-1.5,0.4-3,0.7-4.5c0-0.2,0.1-0.4,0.1-0.7
	c0.2-1.5,0.5-2.9,0.7-4.4c0-0.2,0.1-0.4,0.1-0.6c0.2-1.3,0.4-2.6,0.7-3.9c0.1-0.3,0.1-0.7,0.2-1c0.2-1.1,0.4-2.2,0.6-3.4
	c0.4-1.9,0.7-3.8,1.1-5.7c0.3-1.5,0.6-3,1-4.5c0.3-1.2,0.5-2.3,0.8-3.5c0.3-1.2,0.5-2.3,0.8-3.4c0.3-1.3,0.6-2.5,0.9-3.8
	c0.3-1.2,0.6-2.5,1-3.8c0.3-1.2,0.6-2.5,1-3.7c0.3-1.1,0.6-2.2,0.9-3.3c0.1-0.2,0.1-0.4,0.2-0.6c0.3-1.2,0.7-2.3,1-3.5
	c0.3-1.2,0.7-2.5,1.1-3.7c0.4-1.2,0.7-2.5,1.1-3.7c0.8-2.4,1.5-4.9,2.4-7.3c0.4-1.1,0.7-2.1,1.1-3.2c0.4-1.1,0.7-2.1,1.1-3.2
	c0.5-1.4,1-2.7,1.5-4.1c0.1-0.3,0.2-0.6,0.3-0.9c0.3-0.9,0.7-1.8,1-2.6c0.2-0.6,0.5-1.2,0.7-1.8c0.4-1,0.8-2.1,1.2-3.1
	c0.4-0.9,0.7-1.8,1.1-2.7c0.5-1.2,0.9-2.3,1.4-3.5c0.5-1.2,1-2.4,1.5-3.6c0.5-1.2,1-2.4,1.5-3.6c0.1-0.3,0.3-0.7,0.5-1
	c0.4-1,0.8-1.9,1.2-2.8c0.3-0.8,0.7-1.5,1-2.3c0.6-1.3,1.2-2.6,1.8-3.8c0.5-1,0.9-2,1.4-3c0.6-1.3,1.3-2.6,1.9-3.9
	c0.6-1.3,1.2-2.5,1.9-3.8c0.1-0.1,0.1-0.3,0.2-0.4c0.8-1.5,1.5-3,2.3-4.5c0.6-1.2,1.3-2.5,2-3.7c1-1.8,1.9-3.6,2.9-5.3
	c0.8-1.5,1.7-3,2.5-4.5c0.9-1.5,1.7-3,2.6-4.4c0.9-1.5,1.8-2.9,2.7-4.4c0.9-1.5,1.8-2.9,2.7-4.4c0.8-1.2,1.5-2.4,2.3-3.6
	c0.4-0.6,0.7-1.2,1.1-1.7c0.6-0.9,1.1-1.7,1.7-2.6c0.2-0.3,0.5-0.7,0.7-1c0.9-1.3,1.8-2.6,2.6-3.9c0.8-1.2,1.7-2.5,2.6-3.7
	c0.2-0.2,0.3-0.5,0.5-0.7c0.2-0.2,0.3-0.5,0.5-0.7c0,0,0,0,0,0c0,0,0-0.1,0.1-0.1c1-1.4,2-2.8,3-4.1c1.1-1.5,2.2-3,3.4-4.5
	c0,0,0.1-0.1,0.1-0.1c0-0.1,0.1-0.1,0.2-0.2c0,0,0-0.1,0-0.1c0.9-1.2,1.8-2.3,2.7-3.5c0.1-0.1,0.2-0.2,0.3-0.4
	c0.2-0.2,0.3-0.4,0.5-0.6c1.1-1.4,2.2-2.8,3.3-4.1c0,0,0,0,0-0.1c1-1.3,2.1-2.6,3.1-3.8c0.2-0.3,0.4-0.5,0.7-0.8
	c1.2-1.4,2.3-2.8,3.5-4.2c1.2-1.5,2.5-2.9,3.7-4.3c0,0,0,0,0.1-0.1c1.1-1.2,2.1-2.4,3.2-3.6c0.1-0.1,0.2-0.2,0.3-0.3
	c0.2-0.2,0.4-0.5,0.6-0.7c1.1-1.3,2.3-2.5,3.4-3.7c0,0,0.1-0.1,0.1-0.1c1.2-1.4,2.5-2.7,3.8-4c0,0,0.1-0.1,0.1-0.1
	c1.3-1.4,2.6-2.7,4-4.1c1.3-1.4,2.7-2.7,4-4c1.3-1.3,2.5-2.5,3.8-3.7c0.1-0.1,0.3-0.3,0.4-0.4c0,0,0.1-0.1,0.2-0.2
	c1-0.9,2-1.9,2.9-2.8c0.2-0.2,0.4-0.3,0.6-0.5c0.3-0.3,0.6-0.6,0.9-0.8c0.1-0.1,0.2-0.1,0.2-0.2c1.1-1,2.3-2.1,3.4-3.1
	c1.8-1.6,3.7-3.3,5.5-4.9c0.6-0.5,1.2-1,1.8-1.5c4.6-3.9,9.2-7.8,14-11.5c1.2-0.9,2.3-1.8,3.5-2.7c0,0,0,0,0.1-0.1
	c1.2-0.9,2.3-1.8,3.5-2.6c2.8-2.1,5.5-4.1,8.3-6.1c0.9-0.6,1.8-1.3,2.7-1.9c0.4-0.3,0.8-0.5,1.2-0.8c0.2-0.1,0.3-0.2,0.5-0.3
	c1-0.7,2-1.4,3-2c0.1-0.1,0.2-0.2,0.3-0.2c0.2-0.1,0.3-0.2,0.5-0.3c0.5-0.3,0.9-0.6,1.4-0.9c1.2-0.8,2.4-1.6,3.5-2.3
	c0.1-0.1,0.2-0.1,0.3-0.2c0.2-0.2,0.4-0.3,0.7-0.4c0.3-0.2,0.5-0.3,0.8-0.5c0,0,0,0,0.1,0c0,0,0.1-0.1,0.1-0.1c0,0,0.1,0,0.1-0.1
	c1.2-0.8,2.4-1.5,3.6-2.3c0.1,0,0.1-0.1,0.2-0.1c1.6-1,3.2-2,4.8-2.9c0,0,0,0,0.1,0c0.1,0,0.1-0.1,0.2-0.1c1.4-0.9,2.8-1.7,4.3-2.5
	c0.4-0.2,0.8-0.5,1.2-0.7c1-0.6,2-1.2,3.1-1.8c0.7-0.4,1.3-0.8,2-1.1c0.6-0.4,1.2-0.7,1.8-1c1.8-1,3.7-2,5.5-3c0.7-0.3,1.3-0.7,2-1
	c1.6-0.9,3.2-1.7,4.8-2.5c0.2-0.1,0.3-0.2,0.4-0.2c1.2-0.6,2.5-1.3,3.8-1.9c0.6-0.3,1.2-0.6,1.9-0.9c1.1-0.5,2.3-1.1,3.4-1.6
	c0.4-0.2,0.7-0.3,1-0.5c1.5-0.7,3.1-1.4,4.7-2.2c1.5-0.7,3.1-1.4,4.6-2.1c1.5-0.7,3.1-1.4,4.7-2c1.6-0.7,3.2-1.4,4.8-2c0,0,0,0,0,0
	c1.6-0.7,3.2-1.3,4.9-1.9v0c1.5-0.6,3-1.2,4.5-1.7c0.2-0.1,0.3-0.1,0.5-0.2c1.4-0.5,2.8-1.1,4.3-1.6c1.5-0.5,3-1.1,4.5-1.6
	c0.3-0.1,0.5-0.2,0.8-0.3c1.4-0.5,2.9-1,4.3-1.5c1.6-0.5,3.2-1.1,4.8-1.6c0,0,0.1,0,0.1,0c1.6-0.5,3.2-1,4.9-1.5
	c1.4-0.4,2.9-0.9,4.3-1.3c0.4-0.1,0.8-0.2,1.2-0.4c1.3-0.4,2.6-0.7,3.9-1.1c0.2-0.1,0.5-0.1,0.7-0.2c1.4-0.4,2.7-0.7,4.1-1.1
	c0.3-0.1,0.7-0.2,1-0.3c1.1-0.3,2.1-0.5,3.2-0.8c0.7-0.2,1.3-0.3,2-0.5c1.2-0.3,2.4-0.6,3.5-0.8c0.4-0.1,0.7-0.2,1.1-0.3
	c1.6-0.4,3.3-0.7,4.9-1.1c1.7-0.4,3.4-0.7,5.1-1.1c0.1,0,0.1,0,0.2,0c3.3-0.7,6.7-1.3,10-1.9c1.7-0.3,3.4-0.6,5.1-0.9
	c0.2,0,0.3-0.1,0.5-0.1c1.5-0.2,3-0.5,4.6-0.7c1.4-0.2,2.9-0.4,4.3-0.6c1.1-0.2,2.3-0.3,3.4-0.5c0.5-0.1,1.1-0.1,1.6-0.2
	c1.1-0.1,2.2-0.3,3.3-0.4c0.5-0.1,1-0.1,1.5-0.2c1.2-0.1,2.5-0.3,3.7-0.4c0.5-0.1,1.1-0.1,1.6-0.2c1-0.1,2-0.2,3-0.3
	c0.7-0.1,1.4-0.1,2.2-0.2c1.1-0.1,2.1-0.2,3.2-0.3c0.5,0,1.1-0.1,1.6-0.1c1.1-0.1,2.2-0.2,3.3-0.2c0.8,0,1.5-0.1,2.3-0.1
	c0.9-0.1,1.9-0.1,2.8-0.2c0.8,0,1.6-0.1,2.4-0.1c0.9,0,1.8-0.1,2.7-0.1c1.7-0.1,3.3-0.1,5-0.2c1.7-0.1,3.5-0.1,5.2-0.1
	c1.8,0,3.6,0,5.4,0c1.4,0,2.8,0,4.1,0c0.6,0,1.3,0,1.9,0c1.3,0,2.7,0,4,0.1c1.7,0,3.4,0.1,5,0.2c0,0,0,0,0,0
	c1.5,0.1,3.1,0.1,4.6,0.2c0.3,0,0.5,0,0.8,0c1.4,0.1,2.8,0.2,4.2,0.2c0.2,0,0.4,0,0.6,0c1.6,0.1,3.2,0.2,4.8,0.3c0,0,0,0,0,0
	c1.6,0.1,3.2,0.3,4.8,0.4c0.1,0,0.2,0,0.3,0c1.3,0.1,2.7,0.2,4,0.4c0.3,0,0.7,0.1,1,0.1c1.5,0.1,3,0.3,4.5,0.5h0
	c1.6,0.2,3.2,0.4,4.8,0.6c0,0,0,0,0.1,0c1.5,0.2,2.9,0.4,4.3,0.6c1.9,0.3,3.8,0.5,5.6,0.8c1.4,0.2,2.8,0.4,4.2,0.7
	c3.4,0.5,6.7,1.2,10.1,1.8c1.5,0.3,3,0.6,4.5,0.9c1.3,0.3,2.5,0.5,3.8,0.8c0.7,0.1,1.3,0.3,2,0.4c1.4,0.3,2.8,0.6,4.3,1
	c0,0,0,0,0.1,0c1.5,0.3,2.9,0.7,4.3,1c0.2,0,0.4,0.1,0.6,0.1v0c1.4,0.3,2.7,0.7,4.1,1c2.8,0.7,5.5,1.5,8.2,2.2
	c0.4,0.1,0.9,0.2,1.3,0.4c1.4,0.4,2.9,0.8,4.3,1.3c1.5,0.5,3.1,0.9,4.6,1.4c0,0,0.1,0,0.1,0c1.5,0.5,3,0.9,4.5,1.4
	c1.1,0.4,2.3,0.7,3.4,1.1c0.6,0.2,1.3,0.4,2,0.7c3,1,5.9,2,8.8,3.1c1.3,0.5,2.6,0.9,3.8,1.4c1.5,0.6,3,1.1,4.5,1.7
	c0.1,0,0.2,0.1,0.3,0.1c1.4,0.6,2.8,1.1,4.1,1.7c0.2,0.1,0.3,0.1,0.4,0.2c0.2,0,0.3,0.1,0.4,0.2v0c1.2,0.5,2.4,1,3.5,1.5
	c1.5,0.6,2.9,1.2,4.4,1.9c0.1,0,0.1,0,0.1,0.1c1.4,0.6,2.8,1.2,4.2,1.9c1.4,0.7,2.9,1.3,4.3,2c1.4,0.7,2.9,1.3,4.3,2
	c3,1.4,6,2.9,8.9,4.4c0.9,0.5,1.7,0.9,2.6,1.4c1.8,0.9,3.6,1.9,5.3,2.8c1.1,0.6,2.2,1.2,3.2,1.8c3.2,1.8,6.4,3.6,9.6,5.5
	c0.2,0.1,0.4,0.3,0.7,0.4c0.2,0.1,0.5,0.3,0.7,0.4c0.3,0.2,0.6,0.4,0.9,0.5c0.3,0.2,0.6,0.4,0.9,0.5c0.5,0.3,0.9,0.5,1.4,0.8
	c1.1,0.7,2.2,1.3,3.2,2c1.3,0.8,2.5,1.6,3.8,2.4c1.4,0.9,2.8,1.8,4.3,2.8c1.2,0.8,2.4,1.6,3.6,2.4c0.1,0,0.1,0.1,0.2,0.1
	c1.2,0.8,2.5,1.7,3.7,2.5c1.3,0.9,2.6,1.8,3.8,2.7c0.7,0.5,1.4,1,2,1.5c0.8,0.6,1.6,1.1,2.4,1.7c0.2,0.1,0.3,0.2,0.5,0.4
	c1,0.8,2,1.5,3,2.3c0.3,0.2,0.7,0.5,1,0.8c1.1,0.8,2.2,1.7,3.3,2.5c1.2,0.9,2.4,1.9,3.7,2.8c0.2,0.2,0.4,0.3,0.6,0.5
	c1.1,0.9,2.3,1.8,3.4,2.7c1.3,1,2.5,2.1,3.8,3.1c1.2,1,2.5,2.1,3.7,3.1c0,0,0.1,0.1,0.1,0.1c1.2,1,2.4,2.1,3.6,3.1
	c1.1,1,2.2,2,3.4,3c0.3,0.3,0.6,0.5,0.9,0.8c0.7,0.6,1.4,1.2,2,1.9c0.1,0.1,0.3,0.2,0.4,0.4c0,0,0,0,0,0c0.3,0.3,0.6,0.6,0.9,0.8
	c0.8,0.7,1.6,1.5,2.3,2.2c0.5,0.5,1,0.9,1.5,1.4c0.8,0.8,1.7,1.6,2.5,2.4c0.2,0.2,0.4,0.4,0.6,0.6c1.1,1.1,2.2,2.2,3.3,3.3
	c1.2,1.1,2.3,2.3,3.4,3.5c0.8,0.8,1.7,1.7,2.5,2.6c0.2,0.2,0.5,0.5,0.7,0.7c0.8,0.9,1.7,1.8,2.5,2.7c0.1,0.1,0.1,0.1,0.2,0.2
	c0.7,0.8,1.4,1.5,2.1,2.3c0.5,0.5,1,1.1,1.5,1.6c0.6,0.7,1.3,1.4,1.9,2.1c1.8,2,3.5,3.9,5.2,5.9c1.6,1.9,3.2,3.8,4.8,5.7
	c0.2,0.2,0.4,0.4,0.5,0.6c0.7,0.9,1.5,1.8,2.2,2.7c0,0,0,0,0.1,0.1c0.8,1,1.6,2,2.4,3c0.8,1,1.6,2,2.4,3.1c0.6,0.8,1.2,1.5,1.8,2.3
	c0.6,0.8,1.2,1.6,1.8,2.3c1.2,1.6,2.4,3.2,3.5,4.7c0.6,0.9,1.3,1.7,1.9,2.6c0.9,1.3,1.8,2.5,2.7,3.8c0.9,1.2,1.7,2.5,2.6,3.7
	c1.4,2,2.8,4,4.1,6.1c0.7,1.1,1.4,2.2,2.2,3.3c0.7,1.1,1.4,2.2,2.1,3.3c0.6,1,1.2,2,1.9,3c0.2,0.4,0.4,0.7,0.7,1.1
	c0.5,0.8,1,1.7,1.6,2.5c0.7,1.1,1.4,2.3,2,3.4c0.6,1,1.2,2,1.8,3.1c0.6,1,1.1,2,1.7,3c0.6,1,1.1,2,1.7,3c1.1,2,2.2,4.1,3.3,6.1
	c0.5,1,1.1,2,1.6,3.1c0,0,0,0.1,0,0.1c0.5,1,1,1.9,1.5,2.9c1.1,2.2,2.2,4.3,3.2,6.5c0.4,0.9,0.9,1.8,1.3,2.7
	c0.6,1.3,1.2,2.6,1.8,3.9c0.4,0.9,0.9,1.9,1.3,2.8c0.4,0.8,0.7,1.7,1.1,2.5c0.2,0.4,0.4,0.9,0.6,1.3c0.4,0.9,0.8,1.7,1.1,2.6
	c0.5,1.1,0.9,2.1,1.4,3.2c0.5,1.1,0.9,2.2,1.4,3.2c0.2,0.6,0.5,1.2,0.7,1.8c0.4,0.9,0.7,1.8,1.1,2.7c0.2,0.6,0.5,1.1,0.7,1.7
	c0.1,0.3,0.2,0.6,0.3,0.9c0.4,1.1,0.9,2.2,1.3,3.3c0.2,0.4,0.3,0.8,0.4,1.2c0.5,1.2,0.9,2.4,1.3,3.5c0.5,1.3,1,2.6,1.4,4
	c0.2,0.6,0.4,1.3,0.7,1.9c0.4,1.1,0.8,2.3,1.2,3.4c0.4,1.2,0.8,2.5,1.2,3.7c0.3,0.8,0.6,1.7,0.8,2.6c0.4,1.1,0.7,2.2,1,3.2
	c0,0,0,0.1,0,0.1c0.5,1.5,0.9,3,1.4,4.6c0,0,0,0.1,0,0.2c0.4,1.5,0.9,3,1.3,4.5c0,0,0,0.1,0,0.1c0,0,0,0.1,0,0.1
	c0.4,1.5,0.8,3,1.2,4.5c0.1,0.5,0.3,1,0.4,1.5c0.2,0.9,0.5,1.8,0.7,2.7c0.2,0.9,0.4,1.8,0.7,2.6c0.3,1.2,0.6,2.4,0.9,3.6
	c0.1,0.4,0.2,0.7,0.3,1.1c0.3,1.2,0.6,2.5,0.8,3.7c0.1,0.5,0.2,1,0.3,1.5c0,0.1,0,0.2,0.1,0.2c0.3,1.2,0.5,2.4,0.8,3.6
	c0.2,1.2,0.5,2.3,0.7,3.5c0,0,0,0.1,0,0.2c0.2,1.2,0.5,2.3,0.7,3.5c0.2,1.2,0.4,2.4,0.7,3.6c0.2,1.3,0.5,2.6,0.7,3.9
	c0.1,0.6,0.2,1.1,0.3,1.7c0.2,1.3,0.4,2.7,0.6,4c0.1,0.8,0.2,1.6,0.4,2.4c0.1,0.8,0.2,1.6,0.3,2.4c0.2,1.6,0.4,3.2,0.7,4.9
	c0.1,0.8,0.2,1.5,0.3,2.3c0.1,0.8,0.2,1.5,0.3,2.3c0,0.2,0.1,0.5,0.1,0.7c0.1,0.4,0.1,0.8,0.1,1.2c0.1,0.8,0.2,1.6,0.2,2.4
	c0,0.3,0.1,0.6,0.1,0.9c0.2,1.5,0.3,3,0.4,4.6c0,0.6,0.1,1.1,0.2,1.7c0,0.3,0.1,0.7,0.1,1c0.2,2.4,0.4,4.9,0.5,7.3
	c0.1,1.4,0.2,2.8,0.2,4.2c0,0.7,0.1,1.5,0.1,2.2c0.1,1.1,0.1,2.3,0.1,3.4c0.1,2,0.2,4,0.2,6.1c0,1.2,0.1,2.3,0.1,3.5
	c0,0.4,0,0.8,0,1.2C1347.7,527.8,1347.7,529.4,1347.7,531z"/>
</svg>
