<?xml version="1.0" encoding="utf-8"?>
<svg version="1.1" id="Layer_1" xmlns="http://www.w3.org/2000/svg" xmlns:xlink="http://www.w3.org/1999/xlink" x="0px" y="0px"
	 viewBox="0 0 800 800" style="enable-background:new 0 0 800 800;" xml:space="preserve">
<g>
	<path d="M421.4,351.9c-13.3,0-26.6,0.9-38,3.6c-21.3,6.2-38,19.4-38,47.7c0,22,11.4,37,30.9,37c2.7,0,5.3-0.9,7-0.9
		c11.4-2.7,22-10.6,28.3-23c10.6-17.7,9.7-33.6,9.7-53.9C421.4,362.3,421.4,351.9,421.4,351.9z"/>
	<path d="M0,0v792.5c0,4.2,3.4,7.5,7.5,7.5h784.9c4.2,0,7.5-3.4,7.5-7.5V7.5c0-4.2-3.4-7.5-7.5-7.5H0L0,0z M415.3,267.2
		c-6.1-8.9-17.7-13.3-28.3-13.3h-3.2c-0.3,0-0.6,0-0.9,0c-17.5,1.8-33.2,11.5-37.5,30.9c-0.8,3.7-2.8,7.4-6.5,9
		c-1.2,0.5-2.5,0.7-3.8,0.5l-47.3-6c-0.4,0-0.7-0.1-1.1-0.2c-3.6-1-8.3-3.6-6.5-10.5c10.6-55.5,58.1-74.9,103-77.6
		c0.2,0,0.3,0,0.5,0h10.4c24.7,0,56.6,7,76.9,25.6c24.7,23,22,53.7,22,87.3v79.4c0,23.6,9.5,34.1,19.1,46.5c0.2,0.3,0.4,0.6,0.6,0.9
		c2.4,4.3,3.2,9.4-1.2,12.8c-9.7,8.8-28.3,24.7-38.9,33.6c-3,2.3-6.9,2.6-10.8,1.5c-1-0.3-1.9-0.8-2.7-1.5
		c-12.5-10.6-16.8-16.8-22.7-25.3c-2.7-3.8-8.1-4.3-11.4-1.1c-14,13.6-26.7,21.6-41.2,26.3c-0.2,0.1-0.4,0.1-0.6,0.2
		c-10.5,2.6-21.9,4.3-35.8,4.3c-42.3,0-75.9-26.4-75.9-78.6c0-41.4,22-69.7,54.7-83c16.7-8,37-11.4,57.3-14.2
		c10.6-1.4,21.3-2.3,31-2.9c3.9-0.3,7-3.6,7-7.5v0C421.4,291.9,422.3,277.7,415.3,267.2z M548.9,545.2c-5.2,4.1-10.6,7.8-16.1,11.1
		l-0.3,0.2c-41.7,26.2-95.5,42.2-143,43.3c-1.4,0-3,0-4.4,0c-74.7,0-130.3-40.9-180.9-85c-2.5-2-4.2-5-4.2-8.3c0-2.5,1.1-5,2.8-6.7
		c1.9-1.7,4.2-2.7,6.7-2.7c1.9,0,3.7,0.5,5.6,1.6c54.1,30,107.5,60.5,173.1,60.3c1.6,0,3,0,4.5,0c41.7-0.9,86.7-11.1,129.7-28.4l0,0
		l3.9-1.6l3-1.2c2-0.9,4.2-1.9,6.4-2.7c1.9-0.9,3.9-1.4,5.9-1.4c6.2,0,12,4.7,12.2,11.6C554.4,539.1,552.2,542.8,548.9,545.2z
		 M546.2,484.5c7.7-1.7,15.3-2.3,22.2-2.3c9.5,0,17.5,1.1,23,3.3c1.9,0.8,3.6,1.6,5.3,3.4l0.2,0.3l0.2,0.3c1.7,2.7,2.7,5.8,2.8,10
		l0,0v2.5c0,15.7-6.8,43.4-26.1,61c-0.2,0.2-0.4,0.4-0.7,0.5c-2,1.4-4.3,2.6-7,2.6h-0.2c-1.9,0-4.1-0.6-5.9-2.3
		c-1.7-1.7-2.7-4.1-2.5-6.2c0-1.4,0.3-2.7,0.8-3.9c1.9-5.2,4.8-12.8,7.2-20.5c2.5-7.7,4.2-15.5,4.2-19.7c0-1.1-0.2-1.9-0.2-2.2
		c0,0-0.2-0.2-0.3-0.2c-0.4-0.1-1.1-0.4-2-0.7c-0.2-0.1-0.5-0.1-0.7-0.2c-2.2-0.4-5.3-0.7-8.7-0.7c-5,0-10.9,0.5-16.4,1.1
		c-6.4,0.9-11.9,1.4-15.6,2.2h-0.3h-0.3c-0.3,0-0.8,0.2-1.2,0.2c-1.9,0-4.1-0.5-5.9-2s-3-4.1-3-6.2c0.2-4.1,2.3-6.7,5-8.8
		c4.4-3.1,8.9-5.8,14.1-7.8"/>
</g>
</svg>
