<?xml version="1.0" encoding="utf-8"?>
<svg version="1.1" id="Layer_1" xmlns="http://www.w3.org/2000/svg" xmlns:xlink="http://www.w3.org/1999/xlink" x="0px" y="0px"
	 viewBox="0 0 800 800" style="enable-background:new 0 0 800 800;" xml:space="preserve">
<path class="st0" d="M0,0v800h800V0H0z M282.3,349c9.8-9.8,25.6-9.8,35.4,0l57.3,57.3v-173c0-13.8,11.2-25,25-25s25,11.2,25,25v173
	l57.3-57.3c9.8-9.8,25.6-9.8,35.4,0c9.8,9.8,9.8,25.6,0,35.4l-100,100c-9.4,9.7-26,9.7-35.4,0c0,0-100-100-100-100
	C272.6,374.6,272.6,358.8,282.3,349z M266.7,541.7h266.7c33.1,1.3,33.2,48.7,0,50c0,0-266.7,0-266.7,0
	C233.6,590.4,233.4,543,266.7,541.7z"/>
</svg>
