<?xml version="1.0" encoding="utf-8"?>
<svg version="1.1" id="Layer_1" xmlns="http://www.w3.org/2000/svg" xmlns:xlink="http://www.w3.org/1999/xlink" x="0px" y="0px"
	 viewBox="0 0 800 800" style="enable-background:new 0 0 800 800;" xml:space="preserve">
<path d="M400,423.8c-0.1,0.1-71.3,65.5-84.1,88.7l46.7-1.9v40.7c0,1.9,18.7,1.1,37.4,0.2c18.7,0.9,37.5,1.7,37.5-0.3v-40.7l46.7,1.8
	C471.3,489.2,400,423.8,400,423.8z M400,423.8c-0.1,0.1-71.3,65.5-84.1,88.7l46.7-1.9v40.7c0,1.9,18.7,1.1,37.4,0.2
	c18.7,0.9,37.5,1.7,37.5-0.3v-40.7l46.7,1.8C471.3,489.2,400,423.8,400,423.8z M400,423.8c-0.1,0.1-71.3,65.5-84.1,88.7l46.7-1.9
	v40.7c0,1.9,18.7,1.1,37.4,0.2c18.7,0.9,37.5,1.7,37.5-0.3v-40.7l46.7,1.8C471.3,489.2,400,423.8,400,423.8z M400,423.8
	c-0.1,0.1-71.3,65.5-84.1,88.7l46.7-1.9v40.7c0,1.9,18.7,1.1,37.4,0.2c18.7,0.9,37.5,1.7,37.5-0.3v-40.7l46.7,1.8
	C471.3,489.2,400,423.8,400,423.8z M400,423.8c-0.1,0.1-71.3,65.5-84.1,88.7l46.7-1.9v40.7c0,1.9,18.7,1.1,37.4,0.2
	c18.7,0.9,37.5,1.7,37.5-0.3v-40.7l46.7,1.8C471.3,489.2,400,423.8,400,423.8z"/>
<path class="st0" d="M800,0v199.3c0,43.4-40.6,81.7-77.4,81.7c-44.3,0-81.2-36.7-81.2-80.3c-4.8,106-154.4,107.1-158.8,0
	c0,43.9-38.4,80.8-83,80.3c-44.3,0-82.2-36.7-82.2-80.3c-4.3,107.2-154,105.8-158.7,0c0,43.6-36.9,80.3-81.2,80.3
	C40.7,281,0,242.8,0,199.3V0H800z"/>
<path class="st0" d="M706,305.4c-17.4-3.6-33.5-12-46.3-24.6c-6.3-5.8-11.8-12.4-16.2-19.7c-34.9,62.2-125.9,60.7-160.4-0.3
	c-16,28.6-47.7,46.8-80.4,46.6c-34.5,1.7-68.9-16.1-85.8-46.5v-0.4c-34.7,61-125.3,62.7-160.4,0.4c-4.5,7.3-9.9,13.9-16.2,19.7
	c-13.1,12.8-29.6,21.4-47.3,24.8H0V800h800V305.4H706z M630.2,681.3C562.5,678.8,525,629.6,525,580.5c-75,12.2-174.9,12.3-249.8,0
	c0,49.2-37.5,98.3-105.2,100.9c-45.7-0.1-82.3-2.6-54.5-102.4l37.4-134.2c34.7-97.9,84.7-97.9,97.2-98c26.5,0.1,50,0.1,79.1,31.8
	c46.6-4.8,95.4-4.8,141.6,0c29.1-31.8,52.6-31.7,79.1-31.8c12.5,0,62.5,0,97.3,97.8L684.7,579C712.4,678.8,675.8,681.3,630.2,681.3z
	"/>
</svg>
