<?xml version="1.0" encoding="utf-8"?>
<svg version="1.1" id="Layer_1" xmlns="http://www.w3.org/2000/svg" xmlns:xlink="http://www.w3.org/1999/xlink" x="0px" y="0px"
	 viewBox="0 0 24 24" style="enable-background:new 0 0 24 24;" xml:space="preserve">
<path d="M0,0v24h24V0H0z M15,11.8c-1.8,0-2.1,1.4-2.1,2.9v5.7H9.3V9h3.4v1.6h0c0.5-0.9,1.6-1.8,3.4-1.8c3.6,0,4.3,2.4,4.3,5.5v6.3
	h-3.6v-5.6C16.9,13.5,16.9,11.8,15,11.8z M5.3,7.4c-1.2,0-2.1-0.9-2.1-2.1s0.9-2.1,2.1-2.1c1.1,0,2.1,0.9,2.1,2.1S6.5,7.4,5.3,7.4z
	 M7.1,9v11.5H3.6V9H7.1z"/>
</svg>
