<?xml version="1.0" encoding="utf-8"?>
<svg version="1.1" id="legal" xmlns="http://www.w3.org/2000/svg" xmlns:xlink="http://www.w3.org/1999/xlink" x="0px" y="0px"
	 viewBox="0 0 800 800" style="enable-background:new 0 0 800 800;" xml:space="preserve">
<path d="M514.8,321.9c-33.6,5.7-66.4-21.9-73.2-61.8c-3.1-17.9-0.4-35.2,6.6-49.4H553c4.9,8.4,8.5,18.1,10.3,28.6
	C570.1,279.1,548.4,316.1,514.8,321.9z"/>
<path d="M362.2,260.1c-6.7,39.9-39.5,67.5-73.2,61.8c-33.6-5.8-55.3-42.8-48.5-82.6c1.8-10.5,5.4-20.2,10.3-28.6h104.8
	C362.6,224.9,365.2,242.2,362.2,260.1z"/>
<path class="st0" d="M401.9,1.2c126.4,0,193.2,54.6,216.2,152.3c23,97.6,29,148.3,13.6,186.7c-21.1,52.9-83.1,79.1-120.3,90.4v59.3
	H307c-8.1,0-14.6-6.6-14.6-14.6v-44.7c-37.1-11.3-99.2-37.5-120.3-90.4c-15.4-38.5-9.4-89.1,13.6-186.8
	C208.7,55.8,275.5,1.2,401.9,1.2H1.2V800H800V1.2H401.9z M87.5,766.1c-11,2.9-22.5-3.2-25.5-13.7l-12.5-42.8
	c-3.1-10.5,3.4-21.3,14.5-24.2l59.4-14.9l23.5,80.8L87.5,766.1z M200.8,799.9c-15.4,1-28.8-10.1-29.9-24.7c-0.5-6.8,1.9-13.2,6-18.2
	l-33-107.8c-10.3-3.4-17.9-12.3-18.7-23.2c-1-14.6,10.6-27.3,26.1-28.3c15.4-1,28.8,10.1,29.9,24.7c0.5,6.8-1.9,13.2-6,18.2
	l33,107.8c10.2,3.4,17.8,12.3,18.7,23.2C227.9,786.2,216.3,798.9,200.8,799.9z M629.2,775.2c-1,14.6-14.4,25.7-29.9,24.7
	c-15.5-1-27.2-13.7-26.1-28.3c0.9-10.9,8.5-19.8,18.7-23.2l33-107.8c-4.2-5-6.5-11.4-6-18.2c1-14.7,14.4-25.7,29.9-24.7
	s27.2,13.7,26.1,28.3c-0.9,10.9-8.5,19.8-18.7,23.2l-33,107.8C627.4,761.9,629.7,768.3,629.2,775.2z M750.5,709.7L738,752.5
	c-3,10.4-14.4,16.6-25.5,13.7l-59.4-14.8l23.5-80.8l59.4,14.8C747.1,688.3,753.6,699.1,750.5,709.7z M710.2,488.7
	c-41.8,53.7-124.8,101-210.4,138.7c58.2,17.7,98.1,25.3,98.1,25.3L575,722.1c0,0-79-20.1-175-54.9c-96,34.9-175,54.9-175,54.9
	l-22.9-69.4c0,0,39.9-7.6,98.1-25.3c-85.6-37.7-168.6-85-210.4-138.7C5.5,380.3,48.1,291.9,48.1,291.9s6.5-14.8,15.1,13.7
	C113.5,449.8,269.4,540.1,400,592.4c130.6-52.3,286.5-142.6,336.9-286.8c8.7-28.5,15.1-13.7,15.1-13.7S794.6,380.3,710.2,488.7z"/>
</svg>
