<?xml version="1.0" encoding="utf-8"?>
<svg version="1.1" id="Layer_1" xmlns="http://www.w3.org/2000/svg" xmlns:xlink="http://www.w3.org/1999/xlink" x="0px" y="0px"
	 viewBox="0 0 800 800" style="enable-background:new 0 0 800 800;" xml:space="preserve">
<path d="M551.9,238.8c-30.6-33.1-75.8-54.8-133.4-54.9c-47.4-0.1-106.1,15.8-142.3,41.5v288.2c32.9,16.2,82.8,27.7,142,27.7h0.3
	c53.2,0,99.3-19.8,131-51.1c31.7-31.6,49.5-72.8,49.7-122.8C599.1,316.1,582.4,272,551.9,238.8z M551.9,238.8
	c-30.6-33.1-75.8-54.8-133.4-54.9c-47.4-0.1-106.1,15.8-142.3,41.5v288.2c32.9,16.2,82.8,27.7,142,27.7h0.3
	c53.2,0,99.3-19.8,131-51.1c31.7-31.6,49.5-72.8,49.7-122.8C599.1,316.1,582.4,272,551.9,238.8z M551.9,238.8
	c-30.6-33.1-75.8-54.8-133.4-54.9c-47.4-0.1-106.1,15.8-142.3,41.5v288.2c32.9,16.2,82.8,27.7,142,27.7h0.3
	c53.2,0,99.3-19.8,131-51.1c31.7-31.6,49.5-72.8,49.7-122.8C599.1,316.1,582.4,272,551.9,238.8z"/>
<path d="M0,0v143h1.3C0.5,149.8,0,156.7,0,163.8v471.7c0,5.6,0.2,11.1,0.8,16.5H0v148h161v0c0.9,0,1.8,0,2.8,0H800V0H0z
	 M424.8,577.1c-77.1,0-148.7-28.1-148.7-28.1v90.6c13.2,3.9,34.9,12.2,21.2,26H193c-13.7-13.7,6.3-21.7,21.5-26V255.5
	c-35.1,27-53.1,50.3-62.3,67.7c10.7,34-9.5,32.3-9.5,32.3l-36.3-57.7c0,0,128.9-146.3,318.4-146.3v0c72.7,0,135.3,22.5,180,61.6
	c45.1,39,70.9,95.7,70.5,155.3c0.2,61.8-29.3,115.9-75.2,152.1C554.3,557,492.6,577.1,424.8,577.1z"/>
</svg>
