<?xml version="1.0" encoding="utf-8"?>
<svg version="1.1" id="Layer_2" xmlns="http://www.w3.org/2000/svg" xmlns:xlink="http://www.w3.org/1999/xlink" x="0px" y="0px"
	 viewBox="0 0 128 128" style="enable-background:new 0 0 128 128;" xml:space="preserve">
<g>
	<path d="M54.2,61.9c-4.3,0.1-4.3,6.5,0,6.6C58.5,68.4,58.5,61.9,54.2,61.9z"/>
	<path d="M54.2,94.7c4.3-0.1,4.3-6.5,0-6.6C49.8,88.2,49.9,94.6,54.2,94.7z"/>
	<path d="M67.3,61.9c-4.4,0.1-4.3,6.5,0,6.6C71.7,68.4,71.7,61.9,67.3,61.9z"/>
	<path d="M67.3,94.7c4.3-0.1,4.3-6.5,0-6.6C63,88.3,62.9,94.6,67.3,94.7z"/>
	<path d="M60.8,81.6c4.3-0.1,4.3-6.5,0-6.6C56.4,75,56.4,81.5,60.8,81.6z"/>
	<path d="M41.1,61.9c-4.3,0.1-4.3,6.5,0,6.6C45.4,68.4,45.4,61.9,41.1,61.9z"/>
	<path d="M41.1,88.1c-4.3,0.1-4.3,6.5,0,6.6C45.4,94.6,45.4,88.2,41.1,88.1z"/>
	<path d="M67.3,55.4c6.6,0,12.2-3.6,15.2-8.8H98V15.8H36.6v30.7h15.6C55.2,51.8,60.8,55.4,67.3,55.4z M41.1,20.2h52.6v4.4H41.1V20.2
		z M41.1,28.9h52.6v4.4H41.1V28.9z M41.1,37.8h52.6v4.4H41.1V37.8z"/>
	<path d="M90.4,65.1c0.1,4.3,6.5,4.3,6.6,0C96.9,60.8,90.4,60.8,90.4,65.1z"/>
	<path d="M73.9,81.6c4.3-0.1,4.3-6.5,0-6.6C69.5,75,69.5,81.5,73.9,81.6z"/>
	<path d="M47.6,81.6c4.3-0.1,4.3-6.5,0-6.6C43.3,75,43.3,81.5,47.6,81.6z"/>
	<path d="M0,0v128h128V0H0z M119.9,37.8c0,2.4-1.9,4.4-4.4,4.4h-4.4v4.4c4.8,0,8.8,3.9,8.8,8.8v52.5c0,4.8-3.9,8.8-8.8,8.8H23.5
		c-4.8,0-8.8-3.9-8.8-8.8V55.2c0-4.8,3.9-8.8,8.8-8.8v-4.4h-4.4c-2.4,0-4.4-1.9-4.4-4.4v-4.4c0-2.4,1.9-4.4,4.4-4.4h4.4
		c0-4.8,4-8.8,8.8-8.8v-8.8h70.2v8.8c4.8,0,8.8,3.9,8.8,8.8h4.4c2.4,0,4.4,1.9,4.4,4.4V37.8z"/>
	<path d="M93.7,88.2c-4.3,0.1-4.3,6.5,0,6.6C98,94.6,98,88.3,93.7,88.2z"/>
	<path d="M100.2,75c-4.3,0.1-4.3,6.5,0,6.6C104.5,81.5,104.6,75.1,100.2,75z"/>
	<path d="M106.8,61.9c-4.3,0.1-4.3,6.5,0,6.6C111.1,68.3,111.2,61.9,106.8,61.9z"/>
	<path d="M80.5,94.7c4.3-0.1,4.3-6.5,0-6.6C76.2,88.3,76.1,94.6,80.5,94.7z"/>
	<path d="M93.7,101.3H41.1c-1.9,0-3.3,1.4-3.3,3.3c0,1.9,1.4,3.3,3.3,3.3h52.6C98,107.7,98.1,101.4,93.7,101.3z"/>
	<path d="M34.4,75c-4.3,0.1-4.3,6.5,0,6.6C38.7,81.5,38.7,75,34.4,75z"/>
	<path d="M87,81.6c4.3-0.1,4.3-6.5,0-6.6C82.7,75,82.7,81.5,87,81.6z"/>
	<path d="M80.5,61.9c-4.3,0.1-4.3,6.5,0,6.6C84.8,68.4,84.8,61.9,80.5,61.9z"/>
	<path d="M27.8,61.9c-4.3,0.1-4.3,6.5,0,6.6C32.2,68.4,32.2,61.9,27.8,61.9z"/>
</g>
</svg>
