<?xml version="1.0" encoding="utf-8"?>
<svg version="1.1" id="Layer_2" xmlns="http://www.w3.org/2000/svg" xmlns:xlink="http://www.w3.org/1999/xlink" x="0px" y="0px"
	 viewBox="0 0 512 512" style="enable-background:new 0 0 512 512;" xml:space="preserve">
<path d="M178.8,299.7c-6.8,0-13.4,1.3-19.4,3.6l0.4-0.1l32.2,13.3c14.4,6.1,24.3,20.2,24.3,36.6c0,21.9-17.8,39.7-39.7,39.7
	c-5.4,0-10.5-1.1-15.2-3l-31.1-12.9c8.9,18.2,27.2,30.6,48.5,30.6c22.3,0,41.4-13.5,49.5-32.8l0.1-0.4c2.6-6.1,4.2-13.2,4.2-20.7
	C232.6,323.7,208.6,299.7,178.8,299.7z M338.9,129.4c-35.2,0-63.7,28.5-63.7,63.7s28.5,63.7,63.7,63.7c17.6,0,33.5-7.2,45-18.7
	c11.5-11.5,18.7-27.4,18.7-45v0C402.6,157.9,374.1,129.4,338.9,129.4z M339.1,240.9C339.1,240.9,339.1,240.9,339.1,240.9
	C339.1,240.9,339.1,240.9,339.1,240.9c-26.5,0-47.9-21.4-47.9-47.8c0,0,0,0,0,0l0,0c0,0,0,0,0,0c0-26.4,21.4-47.9,47.9-47.9
	S387,166.6,387,193C387,219.5,365.5,240.9,339.1,240.9z"/>
<path d="M512,0v512H0V327.6h11.3l97.3,40.3l0.1,0.5c6.7,32.6,35.6,57.2,70.2,57.2c39.6,0,71.7-32.1,71.7-71.7v0
	c0-1.2-0.1-2.3-0.1-3.4l86.1-61.5h2.2c52.8,0,95.6-42.8,95.6-95.6c0-52.8-42.8-95.6-95.6-95.6c-52.8,0-95.5,42.8-95.6,95.5v1.2
	L182.8,282c-1.3,0-2.6-0.1-4-0.1c0,0,0,0,0,0c-15.1,0-29.1,4.6-40.4,12.5L2.6,238.1l0-0.1H0V0H512z"/>
</svg>
